<svg id="svg" version="1.1" xmlns="http://www.w3.org/2000/svg" xmlns:xlink="http://www.w3.org/1999/xlink" width="400" height="400" viewBox="0, 0, 400,400"><g id="svgg"><path id="path0" d="M215.312 106.977 C 212.923 108.241,211.600 109.300,211.600 109.948 C 211.600 110.255,211.285 110.799,210.900 111.157 C 209.473 112.485,209.200 113.550,209.200 117.795 C 209.200 120.332,209.359 122.000,209.600 122.000 C 209.820 122.000,210.000 122.463,210.000 123.029 C 210.000 123.594,210.241 124.298,210.536 124.593 C 211.110 125.168,210.964 127.600,210.355 127.600 C 210.160 127.600,210.000 127.894,210.000 128.253 C 210.000 128.612,209.684 129.197,209.297 129.553 C 208.911 129.909,208.340 130.695,208.030 131.300 C 207.719 131.905,207.315 132.400,207.132 132.400 C 206.950 132.400,206.800 132.672,206.800 133.004 C 206.800 133.336,206.270 134.161,205.623 134.839 C 204.976 135.516,204.391 136.459,204.323 136.935 C 204.206 137.760,203.955 137.809,198.911 138.000 C 194.910 138.151,193.444 138.352,192.893 138.826 C 191.254 140.233,189.830 139.756,186.676 136.742 C 186.019 136.114,185.334 135.600,185.154 135.600 C 184.973 135.600,183.705 134.520,182.335 133.200 C 180.965 131.880,179.691 130.800,179.504 130.800 C 178.838 130.800,177.200 128.822,177.200 128.018 C 177.200 126.969,176.531 126.957,176.200 128.000 C 175.760 129.386,176.330 130.122,180.174 133.132 C 182.233 134.744,184.251 136.364,184.659 136.732 C 189.922 141.476,190.584 141.760,193.119 140.369 C 195.120 139.271,195.525 139.200,199.785 139.200 L 204.321 139.200 208.227 133.300 C 213.017 126.063,213.245 125.540,212.147 124.314 C 206.606 118.123,212.300 107.028,221.030 107.006 C 225.279 106.995,231.200 111.144,231.200 114.132 C 231.200 114.693,231.380 115.264,231.600 115.400 C 233.281 116.439,231.350 123.042,228.564 125.784 C 226.119 128.190,226.055 128.500,227.218 132.316 C 227.668 133.792,228.193 135.630,228.385 136.400 C 229.159 139.505,229.575 141.110,230.202 143.400 C 230.563 144.720,231.122 146.880,231.444 148.200 C 232.685 153.288,233.312 154.390,234.976 154.410 C 236.407 154.427,239.604 157.108,240.435 158.987 C 241.349 161.052,241.588 161.163,246.200 161.677 C 254.696 162.623,255.453 162.596,255.897 161.330 C 256.115 160.708,257.042 159.480,257.958 158.600 C 259.461 157.156,259.601 156.860,259.388 155.568 C 259.116 153.914,258.274 151.341,257.874 150.941 C 257.723 150.790,257.600 150.193,257.600 149.613 C 257.600 149.034,257.452 148.389,257.272 148.180 C 257.092 147.971,256.519 146.450,256.000 144.800 C 255.481 143.150,254.908 141.629,254.728 141.420 C 254.548 141.211,254.400 140.707,254.400 140.300 C 254.400 138.726,253.261 137.294,251.718 136.929 C 245.814 135.533,246.217 125.749,252.225 124.622 C 258.255 123.490,262.622 129.948,259.150 134.862 C 258.208 136.195,258.209 136.998,259.154 139.447 C 259.569 140.521,260.322 142.715,260.829 144.323 C 261.336 145.930,261.897 147.336,262.075 147.446 C 262.254 147.557,262.400 148.063,262.400 148.570 C 262.400 149.380,263.539 152.749,264.360 154.370 C 264.519 154.683,265.742 155.163,267.077 155.435 C 271.708 156.380,274.551 158.693,275.927 162.635 C 277.036 165.812,277.374 167.845,276.847 168.171 C 276.613 168.316,276.226 169.162,275.986 170.053 C 274.102 177.047,260.968 179.484,257.249 173.529 C 255.887 171.349,255.200 169.914,255.200 169.250 C 255.200 168.093,253.957 167.295,251.800 167.067 C 240.783 165.898,240.613 165.908,239.631 167.743 C 239.335 168.295,238.577 168.961,237.947 169.222 C 237.316 169.483,236.800 169.819,236.800 169.968 C 236.800 170.391,234.272 171.201,232.972 171.194 C 225.756 171.157,221.779 162.287,226.586 156.950 C 228.042 155.333,228.267 154.297,227.610 152.228 C 227.084 150.572,225.965 146.082,225.708 144.600 C 225.593 143.940,225.363 143.220,225.196 143.000 C 225.029 142.780,224.761 141.970,224.600 141.200 C 224.439 140.430,224.082 139.080,223.807 138.200 C 223.533 137.320,223.065 135.520,222.769 134.200 C 221.626 129.105,221.563 129.015,219.055 128.881 C 217.122 128.777,216.764 128.875,216.316 129.637 C 216.032 130.118,214.225 132.939,212.300 135.906 C 208.493 141.774,208.312 142.383,209.790 144.387 C 217.032 154.203,206.636 167.954,194.962 164.000 L 192.600 163.200 190.872 165.100 C 189.922 166.145,188.572 167.702,187.872 168.560 C 187.172 169.417,185.295 171.599,183.700 173.409 C 180.555 176.977,180.466 177.211,181.483 179.239 C 181.859 179.987,182.264 181.320,182.383 182.200 C 182.590 183.725,182.731 183.863,185.400 185.152 C 186.940 185.896,191.290 188.024,195.066 189.882 L 201.931 193.260 205.173 192.185 C 206.956 191.593,208.816 191.207,209.307 191.327 C 212.548 192.116,213.422 192.441,214.848 193.384 C 215.727 193.966,217.010 195.242,217.700 196.221 C 218.390 197.199,219.234 198.007,219.577 198.016 C 225.060 198.154,236.797 198.049,237.103 197.860 C 237.327 197.722,237.620 197.022,237.754 196.304 C 239.576 186.611,252.526 182.926,259.669 190.069 C 267.873 198.273,261.475 212.445,249.800 211.930 L 247.400 211.825 243.600 217.539 C 236.946 227.544,237.406 226.650,238.260 227.911 C 243.435 235.554,238.639 245.735,229.842 245.784 C 219.798 245.840,214.849 235.805,220.923 227.700 C 221.789 226.545,222.664 225.600,222.868 225.600 C 223.072 225.600,223.995 225.231,224.919 224.780 C 226.228 224.141,227.370 223.962,230.082 223.969 L 233.563 223.979 234.600 222.490 C 235.171 221.670,236.615 219.470,237.810 217.600 C 239.005 215.730,240.527 213.462,241.192 212.561 C 242.672 210.553,242.709 209.628,241.361 208.370 C 240.790 207.836,239.972 206.718,239.544 205.883 C 237.923 202.721,238.198 202.800,228.823 202.800 C 219.742 202.800,219.200 202.941,219.200 205.305 C 219.200 207.358,216.378 210.794,213.406 212.360 C 205.499 216.527,195.202 207.697,198.167 199.293 C 198.768 197.589,198.235 196.000,197.063 196.000 C 196.792 196.000,193.338 194.381,189.386 192.402 C 180.947 188.176,181.670 188.293,179.181 190.743 C 174.382 195.467,166.993 195.158,162.898 190.062 C 156.510 182.113,163.451 170.479,173.358 172.532 C 175.141 172.901,176.793 173.203,177.029 173.202 C 177.385 173.200,180.099 170.214,187.900 161.235 C 188.394 160.666,188.799 160.053,188.800 159.874 C 188.800 159.454,187.964 157.861,187.606 157.600 C 186.450 156.759,186.023 151.020,186.878 147.825 C 187.477 145.585,187.070 144.736,184.476 142.803 C 183.444 142.034,182.510 141.309,182.400 141.192 C 182.290 141.075,181.390 140.359,180.400 139.600 C 179.410 138.841,178.510 138.125,178.400 138.008 C 175.536 134.960,172.291 133.091,171.380 133.965 C 170.512 134.798,167.411 135.053,164.916 134.496 C 161.975 133.840,162.280 133.694,157.600 138.000 C 155.567 139.870,153.658 141.543,153.357 141.717 C 151.862 142.583,152.081 144.763,154.036 148.495 C 154.501 149.382,154.511 154.591,154.049 155.505 C 153.856 155.887,153.471 156.920,153.193 157.800 C 149.676 168.944,130.928 170.046,126.053 159.394 C 125.753 158.737,125.362 157.910,125.184 157.555 C 119.153 145.487,134.308 132.161,146.582 138.739 C 148.238 139.627,148.655 139.538,150.401 137.925 C 150.952 137.416,153.042 135.513,155.045 133.695 L 158.688 130.390 158.504 126.695 C 158.253 121.648,159.387 119.536,163.546 117.307 C 167.642 115.111,176.000 118.869,176.000 122.906 C 176.000 123.190,176.340 123.714,176.756 124.070 C 177.484 124.693,177.505 124.655,177.296 123.059 C 177.177 122.146,176.927 121.340,176.740 121.267 C 176.553 121.193,176.400 120.874,176.400 120.556 C 176.400 119.925,173.466 116.900,172.078 116.100 C 170.580 115.237,163.611 115.453,162.400 116.400 C 161.850 116.830,161.247 117.186,161.061 117.191 C 160.556 117.204,158.020 120.121,158.009 120.700 C 158.004 120.975,157.820 121.200,157.600 121.200 C 157.380 121.200,157.200 121.740,157.200 122.400 C 157.200 123.060,157.020 123.600,156.800 123.600 C 156.580 123.600,156.400 124.399,156.400 125.376 C 156.400 126.353,156.580 127.264,156.800 127.400 C 158.113 128.211,151.987 136.400,150.068 136.400 C 149.879 136.400,149.398 136.760,149.000 137.200 C 148.602 137.640,148.026 138.000,147.721 138.000 C 147.416 138.000,146.780 137.640,146.308 137.200 C 145.836 136.760,145.044 136.400,144.548 136.400 C 144.053 136.400,143.536 136.220,143.400 136.000 C 143.264 135.780,141.554 135.600,139.600 135.600 C 137.646 135.600,135.936 135.780,135.800 136.000 C 135.664 136.220,134.843 136.400,133.976 136.400 C 133.109 136.400,132.400 136.580,132.400 136.800 C 132.400 137.020,132.106 137.200,131.747 137.200 C 131.388 137.200,130.803 137.516,130.447 137.903 C 130.091 138.289,129.305 138.860,128.700 139.170 C 128.095 139.481,127.600 139.968,127.600 140.254 C 127.600 140.539,127.278 140.944,126.884 141.155 C 126.490 141.366,125.912 142.047,125.599 142.669 C 125.285 143.291,124.707 144.278,124.314 144.862 C 123.890 145.493,123.600 146.659,123.600 147.738 C 123.600 148.736,123.420 149.664,123.200 149.800 C 122.980 149.936,122.800 151.117,122.800 152.424 C 122.800 153.741,122.978 154.800,123.200 154.800 C 123.420 154.800,123.600 155.503,123.600 156.362 C 123.600 157.884,125.022 161.200,125.674 161.200 C 125.853 161.200,126.000 161.478,126.000 161.818 C 126.000 162.543,127.751 164.400,128.435 164.400 C 128.694 164.400,129.197 164.716,129.553 165.103 C 129.909 165.489,130.695 166.060,131.300 166.370 C 131.905 166.681,132.400 167.085,132.400 167.268 C 132.400 167.450,133.120 167.600,134.000 167.600 C 134.880 167.600,135.600 167.780,135.600 168.000 C 135.600 168.238,137.125 168.400,139.376 168.400 C 141.463 168.400,143.263 168.221,143.400 168.000 C 143.536 167.780,144.177 167.600,144.824 167.600 C 145.471 167.600,146.000 167.420,146.000 167.200 C 146.000 166.980,146.236 166.800,146.525 166.800 C 146.813 166.800,147.436 166.440,147.908 166.000 C 148.380 165.560,148.936 165.200,149.143 165.200 C 149.687 165.200,152.400 162.408,152.400 161.848 C 152.400 161.589,152.760 161.117,153.200 160.800 C 153.670 160.461,154.000 159.765,154.000 159.112 C 154.000 158.500,154.180 158.000,154.400 158.000 C 154.620 158.000,154.800 157.561,154.800 157.024 C 154.800 156.487,154.980 155.936,155.200 155.800 C 155.420 155.664,155.600 153.943,155.600 151.976 C 155.600 149.859,155.437 148.400,155.200 148.400 C 154.980 148.400,154.800 147.865,154.800 147.212 C 154.800 146.559,154.440 145.383,154.000 144.600 C 153.042 142.894,153.031 142.800,153.797 142.800 C 154.126 142.800,155.492 141.720,156.832 140.400 C 158.173 139.080,159.480 138.000,159.737 138.000 C 159.994 138.000,160.444 137.460,160.736 136.800 C 161.286 135.556,164.368 134.978,165.000 136.000 C 165.305 136.494,167.701 136.529,168.220 136.047 C 168.907 135.408,172.755 135.264,173.249 135.859 C 173.496 136.156,173.946 136.400,174.249 136.400 C 174.552 136.400,174.800 136.550,174.800 136.732 C 174.800 136.915,175.295 137.320,175.900 137.632 C 176.505 137.945,177.477 138.695,178.060 139.300 C 178.644 139.905,179.314 140.400,179.551 140.400 C 181.066 140.400,186.752 147.283,185.564 147.679 C 185.288 147.771,185.127 149.272,185.127 151.756 C 185.127 154.062,185.308 155.868,185.564 156.124 C 185.804 156.364,186.000 157.064,186.000 157.680 C 186.000 158.296,186.180 158.800,186.400 158.800 C 187.772 158.800,186.587 161.021,183.600 164.049 C 181.840 165.833,180.400 167.465,180.400 167.677 C 180.400 167.889,179.680 168.754,178.800 169.600 C 177.920 170.446,177.200 171.421,177.200 171.769 C 177.200 172.116,177.020 172.400,176.800 172.400 C 176.580 172.400,176.400 172.220,176.400 172.000 C 176.400 171.780,175.781 171.600,175.024 171.600 C 174.267 171.600,173.536 171.420,173.400 171.200 C 173.264 170.980,172.004 170.800,170.600 170.800 C 169.196 170.800,167.936 170.980,167.800 171.200 C 167.664 171.420,167.203 171.600,166.776 171.600 C 166.349 171.600,166.000 171.780,166.000 172.000 C 166.000 172.220,165.718 172.400,165.374 172.400 C 164.559 172.400,160.400 176.559,160.400 177.374 C 160.400 177.718,160.237 178.000,160.039 178.000 C 159.840 178.000,159.577 178.855,159.454 179.900 C 159.331 180.945,159.117 182.544,158.978 183.453 C 158.820 184.484,158.890 185.208,159.162 185.377 C 159.403 185.526,159.604 186.132,159.609 186.724 C 159.614 187.316,159.970 188.250,160.400 188.800 C 160.830 189.350,161.186 189.953,161.191 190.140 C 161.205 190.685,164.875 194.000,165.464 194.000 C 165.759 194.000,166.000 194.180,166.000 194.400 C 166.000 194.620,166.619 194.800,167.376 194.800 C 168.133 194.800,168.864 194.980,169.000 195.200 C 169.322 195.721,173.878 195.721,174.200 195.200 C 174.336 194.980,174.887 194.800,175.424 194.800 C 175.961 194.800,176.400 194.620,176.400 194.400 C 176.400 194.180,176.720 194.000,177.112 194.000 C 177.503 194.000,178.083 193.640,178.400 193.200 C 178.717 192.760,179.173 192.400,179.413 192.400 C 179.653 192.400,180.249 191.860,180.737 191.200 C 181.782 189.786,182.143 189.730,183.292 190.800 C 183.764 191.240,184.484 191.600,184.892 191.600 C 185.300 191.600,186.020 191.960,186.492 192.400 C 186.964 192.840,187.767 193.200,188.275 193.200 C 188.784 193.200,189.200 193.380,189.200 193.600 C 189.200 193.820,189.520 194.000,189.912 194.000 C 190.303 194.000,190.883 194.360,191.200 194.800 C 191.517 195.240,192.097 195.600,192.488 195.600 C 192.880 195.600,193.200 195.780,193.200 196.000 C 193.200 196.220,193.605 196.400,194.100 196.400 C 195.401 196.401,197.487 198.273,196.872 198.888 C 196.282 199.478,196.215 206.800,196.800 206.800 C 197.020 206.800,197.200 207.160,197.200 207.600 C 197.200 208.040,197.380 208.400,197.600 208.400 C 197.820 208.400,198.000 208.618,198.000 208.884 C 198.000 210.424,203.048 214.000,205.222 214.000 C 206.064 214.000,206.864 214.180,207.000 214.400 C 207.136 214.620,208.036 214.800,209.000 214.800 C 209.964 214.800,210.864 214.620,211.000 214.400 C 211.136 214.180,211.949 214.000,212.807 214.000 C 214.506 214.000,219.600 209.695,219.600 208.260 C 219.600 207.897,219.780 207.600,220.000 207.600 C 220.220 207.600,220.400 207.096,220.400 206.480 C 220.400 204.486,220.760 204.400,229.093 204.400 C 236.091 204.400,236.850 204.466,237.085 205.100 C 237.228 205.485,237.672 206.091,238.072 206.447 C 238.473 206.803,238.800 207.271,238.800 207.488 C 238.800 207.704,239.353 208.460,240.030 209.168 L 241.259 210.455 240.430 211.174 C 239.973 211.570,239.600 212.148,239.600 212.459 C 239.600 212.769,239.240 213.283,238.800 213.600 C 238.360 213.917,238.000 214.497,238.000 214.888 C 238.000 215.280,237.850 215.600,237.668 215.600 C 237.485 215.600,237.080 216.095,236.768 216.700 C 236.455 217.305,235.885 218.149,235.500 218.575 C 235.115 219.002,234.800 219.587,234.800 219.875 C 234.800 220.164,234.659 220.400,234.486 220.400 C 234.314 220.400,233.875 220.903,233.512 221.518 C 232.870 222.605,232.753 222.637,229.177 222.687 C 227.156 222.715,225.308 222.932,225.071 223.169 C 224.834 223.406,224.350 223.600,223.995 223.600 C 223.641 223.600,222.964 223.960,222.492 224.400 C 222.020 224.840,221.386 225.200,221.084 225.200 C 220.782 225.200,220.281 225.695,219.970 226.300 C 219.660 226.905,219.089 227.691,218.703 228.047 C 218.316 228.403,218.000 228.977,218.000 229.323 C 218.000 229.670,217.820 230.064,217.600 230.200 C 217.373 230.340,217.200 232.330,217.200 234.800 C 217.200 237.270,217.373 239.260,217.600 239.400 C 217.820 239.536,218.000 239.997,218.000 240.424 C 218.000 240.851,218.180 241.200,218.400 241.200 C 218.620 241.200,218.800 241.488,218.800 241.839 C 218.800 242.561,221.532 245.176,222.300 245.191 C 222.575 245.196,222.800 245.380,222.800 245.600 C 222.800 245.820,223.149 246.000,223.576 246.000 C 224.003 246.000,224.464 246.180,224.600 246.400 C 224.736 246.620,225.467 246.800,226.224 246.800 C 226.981 246.800,227.600 246.980,227.600 247.200 C 227.600 247.420,228.500 247.600,229.600 247.600 C 230.700 247.600,231.600 247.420,231.600 247.200 C 231.600 246.980,232.135 246.800,232.788 246.800 C 234.950 246.800,240.400 242.602,240.400 240.936 C 240.400 240.641,240.580 240.400,240.800 240.400 C 241.020 240.400,241.200 239.871,241.200 239.224 C 241.200 238.577,241.380 237.936,241.600 237.800 C 241.820 237.664,242.000 236.404,242.000 235.000 C 242.000 233.596,241.820 232.336,241.600 232.200 C 241.380 232.064,241.200 231.513,241.200 230.976 C 241.200 230.439,241.020 230.000,240.800 230.000 C 240.580 230.000,240.400 229.640,240.400 229.200 C 240.400 228.760,240.220 228.400,240.000 228.400 C 238.916 228.400,240.379 224.017,242.003 222.400 C 242.334 222.070,242.860 221.305,243.170 220.700 C 243.481 220.095,243.885 219.600,244.068 219.600 C 244.250 219.600,244.400 219.240,244.400 218.800 C 244.400 218.360,244.550 218.000,244.732 218.000 C 244.915 218.000,245.320 217.505,245.632 216.900 C 245.945 216.295,246.515 215.451,246.900 215.025 C 247.285 214.598,247.600 214.013,247.600 213.725 C 247.600 213.333,248.458 213.200,250.976 213.200 C 252.833 213.200,254.464 213.020,254.600 212.800 C 254.736 212.580,255.191 212.400,255.611 212.400 C 257.302 212.400,262.000 208.731,262.000 207.410 C 262.000 207.172,262.360 206.717,262.800 206.400 C 263.240 206.083,263.600 205.514,263.600 205.135 C 263.600 204.757,263.780 204.336,264.000 204.200 C 264.229 204.059,264.400 202.000,264.400 199.389 C 264.400 194.686,264.427 194.792,262.338 191.180 C 260.972 188.819,257.435 186.000,255.838 186.000 C 255.267 186.000,254.800 185.820,254.800 185.600 C 254.800 185.358,253.067 185.200,250.400 185.200 C 247.733 185.200,246.000 185.358,246.000 185.600 C 246.000 185.820,245.460 186.000,244.800 186.000 C 244.140 186.000,243.600 186.150,243.600 186.332 C 243.600 186.515,243.107 186.920,242.505 187.232 C 240.064 188.497,237.200 192.040,237.200 193.795 C 237.200 194.348,237.020 194.800,236.800 194.800 C 236.580 194.800,236.400 195.137,236.400 195.548 C 236.400 196.538,232.281 197.439,230.627 196.810 C 229.902 196.534,228.099 196.528,225.103 196.791 L 220.657 197.181 217.964 194.391 C 216.483 192.856,214.985 191.600,214.636 191.600 C 214.286 191.600,214.000 191.420,214.000 191.200 C 214.000 190.980,213.471 190.800,212.824 190.800 C 212.177 190.800,211.536 190.620,211.400 190.400 C 211.078 189.879,206.922 189.879,206.600 190.400 C 206.464 190.620,205.834 190.800,205.200 190.800 C 204.566 190.800,203.936 190.980,203.800 191.200 C 203.401 191.846,201.733 191.661,200.200 190.800 C 199.417 190.360,198.421 190.000,197.988 190.000 C 197.555 190.000,197.200 189.841,197.200 189.647 C 197.200 189.452,196.885 189.193,196.500 189.071 C 196.115 188.949,195.260 188.541,194.600 188.164 C 192.804 187.139,192.056 186.800,191.589 186.800 C 191.357 186.800,190.780 186.440,190.308 186.000 C 189.836 185.560,189.033 185.200,188.525 185.200 C 188.016 185.200,187.600 185.050,187.600 184.868 C 187.600 184.563,187.102 184.276,184.500 183.079 C 183.748 182.733,183.600 182.347,183.600 180.732 C 183.600 179.670,183.441 178.800,183.247 178.800 C 182.612 178.800,182.457 177.200,183.036 176.622 C 183.346 176.311,183.600 175.883,183.600 175.669 C 183.600 175.456,184.500 174.362,185.600 173.239 C 186.700 172.115,187.600 171.032,187.600 170.831 C 187.600 168.810,194.517 164.171,195.400 165.600 C 195.722 166.122,202.278 166.122,202.600 165.600 C 202.736 165.380,203.289 165.200,203.829 165.200 C 204.888 165.200,206.229 164.562,207.196 163.597 C 207.528 163.266,208.293 162.741,208.895 162.432 C 209.498 162.123,210.217 161.359,210.493 160.735 C 210.769 160.111,211.131 159.600,211.298 159.600 C 211.464 159.600,211.600 159.240,211.600 158.800 C 211.600 158.360,211.735 157.999,211.900 157.997 C 213.022 157.985,213.863 148.457,212.800 147.800 C 212.580 147.664,212.400 147.023,212.400 146.376 C 212.400 145.729,212.220 145.200,212.000 145.200 C 211.780 145.200,211.600 144.880,211.600 144.488 C 211.600 144.097,211.240 143.517,210.800 143.200 C 210.015 142.634,209.679 141.200,210.332 141.200 C 210.515 141.200,210.920 140.705,211.232 140.100 C 211.545 139.495,212.115 138.651,212.500 138.225 C 212.885 137.798,213.200 137.213,213.200 136.925 C 213.200 136.636,213.380 136.400,213.600 136.400 C 213.820 136.400,214.000 136.128,214.000 135.796 C 214.000 135.464,214.540 134.628,215.200 133.937 C 215.860 133.246,216.400 132.438,216.400 132.141 C 216.400 131.843,216.580 131.600,216.800 131.600 C 217.020 131.600,217.200 131.240,217.200 130.800 C 217.200 130.133,217.467 130.000,218.800 130.000 C 220.133 130.000,220.400 130.133,220.400 130.800 C 220.400 131.240,220.580 131.600,220.800 131.600 C 221.020 131.600,221.200 132.129,221.200 132.776 C 221.200 133.423,221.380 134.064,221.600 134.200 C 221.820 134.336,222.000 135.056,222.000 135.800 C 222.000 136.544,222.180 137.264,222.400 137.400 C 222.620 137.536,222.800 137.907,222.800 138.224 C 222.800 138.875,221.379 139.014,221.000 138.400 C 220.393 137.418,217.292 138.181,216.121 139.600 C 214.849 141.140,215.756 145.200,217.371 145.200 C 217.717 145.200,218.000 145.380,218.000 145.600 C 218.000 145.820,218.720 146.000,219.600 146.000 C 220.480 146.000,221.200 145.820,221.200 145.600 C 221.200 145.380,221.560 145.200,222.000 145.200 C 222.622 145.200,222.800 144.933,222.800 144.000 C 222.800 143.340,222.915 142.800,223.056 142.800 C 223.637 142.800,224.375 144.285,224.387 145.476 C 224.394 146.178,224.580 146.864,224.800 147.000 C 225.020 147.136,225.200 147.687,225.200 148.224 C 225.200 148.761,225.380 149.200,225.600 149.200 C 225.820 149.200,226.000 149.909,226.000 150.776 C 226.000 151.643,226.180 152.464,226.400 152.600 C 227.058 153.006,226.854 154.375,226.000 155.292 C 225.560 155.764,225.200 156.387,225.200 156.675 C 225.200 156.964,225.064 157.200,224.898 157.200 C 223.746 157.200,222.798 166.333,223.911 166.704 C 224.180 166.793,224.400 167.128,224.400 167.447 C 224.400 170.367,234.743 174.358,236.200 172.000 C 236.336 171.780,236.757 171.600,237.135 171.600 C 237.514 171.600,238.083 171.240,238.400 170.800 C 238.717 170.360,239.253 170.000,239.591 170.000 C 239.928 170.000,240.444 169.460,240.736 168.800 L 241.267 167.600 245.210 167.600 C 247.407 167.600,249.262 167.777,249.400 168.000 C 249.536 168.220,250.369 168.400,251.252 168.400 C 252.916 168.400,254.000 169.094,254.000 170.159 C 254.000 171.806,257.652 176.400,258.960 176.400 C 259.312 176.400,259.600 176.580,259.600 176.800 C 259.600 177.020,259.960 177.200,260.400 177.200 C 260.840 177.200,261.200 177.380,261.200 177.600 C 261.200 177.820,261.729 178.000,262.376 178.000 C 263.023 178.000,263.664 178.180,263.800 178.400 C 264.122 178.921,267.878 178.921,268.200 178.400 C 268.336 178.180,268.797 178.000,269.224 178.000 C 269.651 178.000,270.000 177.820,270.000 177.600 C 270.000 177.380,270.426 177.200,270.946 177.200 C 272.043 177.200,276.400 173.233,276.400 172.235 C 276.400 171.886,276.580 171.600,276.800 171.600 C 277.020 171.600,277.200 171.251,277.200 170.824 C 277.200 170.397,277.360 169.948,277.557 169.827 C 278.055 169.519,278.097 163.307,277.603 163.002 C 277.381 162.865,277.200 162.403,277.200 161.976 C 277.200 161.549,277.020 161.200,276.800 161.200 C 276.580 161.200,276.400 160.840,276.400 160.400 C 276.400 159.960,276.264 159.600,276.098 159.600 C 275.931 159.600,275.569 159.089,275.293 158.465 C 275.017 157.841,274.298 157.076,273.695 156.766 C 273.093 156.455,272.510 156.111,272.400 156.001 C 271.924 155.523,270.361 154.800,269.805 154.800 C 269.472 154.800,269.200 154.630,269.200 154.422 C 269.200 154.214,268.345 153.989,267.300 153.922 C 265.616 153.814,265.385 153.687,265.266 152.800 C 265.193 152.250,264.968 151.629,264.766 151.420 C 264.565 151.211,264.400 150.637,264.400 150.144 C 264.400 149.651,264.220 149.136,264.000 149.000 C 263.780 148.864,263.600 148.234,263.600 147.600 C 263.600 146.966,263.420 146.336,263.200 146.200 C 262.980 146.064,262.800 145.603,262.800 145.176 C 262.800 144.749,262.620 144.400,262.400 144.400 C 262.180 144.400,262.000 144.051,262.000 143.624 C 262.000 143.197,261.820 142.736,261.600 142.600 C 261.380 142.464,261.200 141.834,261.200 141.200 C 261.200 140.566,261.020 139.936,260.800 139.800 C 260.580 139.664,260.400 139.203,260.400 138.776 C 260.400 138.349,260.220 138.000,260.000 138.000 C 259.313 138.000,259.556 136.964,260.800 134.600 C 262.017 132.287,262.439 129.119,261.600 128.600 C 261.380 128.464,261.200 128.076,261.200 127.737 C 261.200 127.398,260.361 126.329,259.336 125.360 L 257.473 123.600 254.036 123.629 C 250.303 123.661,248.531 124.313,247.805 125.924 C 247.588 126.406,247.273 126.800,247.105 126.800 C 246.937 126.800,246.800 127.149,246.800 127.576 C 246.800 128.003,246.620 128.464,246.400 128.600 C 246.180 128.736,246.000 129.827,246.000 131.024 C 246.000 132.221,246.180 133.200,246.400 133.200 C 246.620 133.200,246.806 133.605,246.813 134.100 C 246.828 135.174,248.506 137.200,249.381 137.200 C 249.721 137.200,250.000 137.350,250.000 137.532 C 250.000 137.715,250.495 138.120,251.100 138.432 C 252.742 139.280,253.200 139.834,253.200 140.971 C 253.200 141.537,253.380 142.000,253.600 142.000 C 253.820 142.000,254.000 142.360,254.000 142.800 C 254.000 143.240,254.180 143.600,254.400 143.600 C 254.620 143.600,254.800 144.140,254.800 144.800 C 254.800 145.460,254.980 146.000,255.200 146.000 C 255.420 146.000,255.600 146.619,255.600 147.376 C 255.600 148.133,255.780 148.864,256.000 149.000 C 256.220 149.136,256.400 149.597,256.400 150.024 C 256.400 150.451,256.580 150.800,256.800 150.800 C 257.020 150.800,257.200 151.520,257.200 152.400 C 257.200 153.280,257.359 154.000,257.553 154.000 C 258.596 154.000,258.212 156.002,256.939 157.202 C 256.202 157.897,255.600 158.720,255.600 159.032 C 255.600 159.345,255.441 159.600,255.247 159.600 C 255.052 159.600,254.799 159.960,254.684 160.400 C 254.454 161.279,250.703 161.614,250.200 160.800 C 250.064 160.580,248.421 160.400,246.548 160.400 C 243.108 160.400,242.000 159.990,242.000 158.717 C 242.000 158.420,241.640 157.917,241.200 157.600 C 240.760 157.283,240.400 156.703,240.400 156.312 C 240.400 155.920,240.132 155.600,239.803 155.600 C 239.475 155.600,238.691 155.060,238.060 154.400 C 237.429 153.740,236.515 153.200,236.028 153.200 C 235.007 153.200,234.000 152.332,234.000 151.452 C 234.000 151.119,233.820 150.736,233.600 150.600 C 233.380 150.464,233.200 149.733,233.200 148.976 C 233.200 148.219,233.020 147.600,232.800 147.600 C 232.580 147.600,232.400 147.161,232.400 146.624 C 232.400 146.087,232.220 145.536,232.000 145.400 C 231.780 145.264,231.600 144.544,231.600 143.800 C 231.600 143.056,231.420 142.336,231.200 142.200 C 230.980 142.064,230.800 141.243,230.800 140.376 C 230.800 139.509,230.620 138.800,230.400 138.800 C 230.180 138.800,230.000 138.260,230.000 137.600 C 230.000 136.940,229.820 136.400,229.600 136.400 C 229.380 136.400,229.200 135.601,229.200 134.624 C 229.200 133.647,229.020 132.736,228.800 132.600 C 228.580 132.464,228.400 131.823,228.400 131.176 C 228.400 130.529,228.220 130.000,228.000 130.000 C 227.049 130.000,227.746 128.606,229.600 126.800 C 230.700 125.729,231.600 124.570,231.600 124.226 C 231.600 123.882,231.780 123.600,232.000 123.600 C 232.220 123.600,232.400 123.251,232.400 122.824 C 232.400 122.397,232.580 121.936,232.800 121.800 C 233.020 121.664,233.200 120.033,233.200 118.176 C 233.200 116.192,233.035 114.800,232.800 114.800 C 232.580 114.800,232.400 114.361,232.400 113.824 C 232.400 113.287,232.220 112.736,232.000 112.600 C 231.780 112.464,231.600 112.076,231.600 111.737 C 231.600 110.997,228.098 107.600,227.336 107.600 C 227.041 107.600,226.800 107.420,226.800 107.200 C 226.800 106.980,226.440 106.800,226.000 106.800 C 225.560 106.800,225.200 106.620,225.200 106.400 C 225.200 105.537,217.146 106.007,215.312 106.977 M190.900 118.965 C 188.403 121.522,188.472 124.749,191.082 127.478 C 192.025 128.464,198.000 128.915,198.000 128.000 C 198.000 127.780,198.360 127.600,198.800 127.600 C 199.333 127.600,199.600 127.333,199.600 126.800 C 199.600 126.360,199.780 126.000,200.000 126.000 C 200.220 126.000,200.400 125.586,200.400 125.080 C 200.400 124.574,200.616 123.944,200.880 123.680 C 201.253 123.307,201.253 123.093,200.880 122.720 C 200.616 122.456,200.400 121.704,200.400 121.048 C 200.400 117.134,194.047 115.741,190.900 118.965 M197.772 119.747 C 201.114 122.900,198.447 128.229,193.975 127.335 C 190.280 126.596,189.339 121.123,192.568 119.154 C 194.475 117.992,196.107 118.178,197.772 119.747 M236.700 122.147 C 235.140 123.489,235.085 127.008,236.603 128.328 C 238.670 130.125,242.800 129.313,242.800 127.109 C 242.800 126.587,243.016 125.944,243.280 125.680 C 243.653 125.307,243.653 125.093,243.280 124.720 C 243.016 124.456,242.800 123.947,242.800 123.590 C 242.800 121.369,238.725 120.405,236.700 122.147 M241.269 123.862 C 242.728 125.182,241.490 128.000,239.450 128.000 C 238.397 128.000,236.800 126.470,236.800 125.462 C 236.800 123.480,239.700 122.442,241.269 123.862 M221.844 140.701 C 222.820 141.987,222.313 143.383,220.523 144.337 C 218.631 145.344,216.374 143.193,217.209 141.178 C 217.916 139.470,220.693 139.185,221.844 140.701 M243.600 142.400 C 243.270 142.613,242.677 142.791,242.282 142.794 C 241.411 142.801,239.600 144.533,239.600 145.358 C 239.600 145.685,239.420 146.064,239.200 146.200 C 237.542 147.225,240.064 153.200,242.154 153.200 C 242.509 153.200,242.800 153.380,242.800 153.600 C 242.800 155.100,248.651 153.173,249.626 151.352 C 250.245 150.195,250.257 145.486,249.641 145.280 C 249.398 145.199,249.200 144.899,249.200 144.613 C 249.200 143.942,247.460 142.800,246.438 142.800 C 246.003 142.800,245.536 142.620,245.400 142.400 C 245.089 141.897,244.378 141.897,243.600 142.400 M247.879 144.972 C 249.204 146.083,249.217 149.870,247.900 151.104 C 243.839 154.908,237.020 149.674,240.736 145.606 C 243.342 142.753,245.050 142.601,247.879 144.972 M166.500 151.416 C 164.019 154.014,165.154 160.382,168.100 160.395 C 169.519 160.401,169.488 160.208,167.800 158.520 C 164.674 155.394,166.485 151.200,170.962 151.200 C 175.292 151.200,176.963 157.186,173.196 159.202 C 172.031 159.826,172.224 160.400,173.600 160.400 C 174.484 160.400,174.800 160.212,174.800 159.688 C 174.800 159.297,175.160 158.717,175.600 158.400 C 176.467 157.775,176.819 153.200,176.000 153.200 C 175.780 153.200,175.600 152.922,175.600 152.582 C 175.600 149.734,168.923 148.879,166.500 151.416 M170.100 160.832 C 170.575 161.109,171.025 161.109,171.500 160.832 C 172.071 160.499,171.942 160.424,170.800 160.424 C 169.658 160.424,169.529 160.499,170.100 160.832 M199.221 172.371 C 198.915 172.795,198.336 173.228,197.933 173.334 C 197.530 173.439,197.200 173.812,197.200 174.163 C 197.200 174.513,197.020 174.800,196.800 174.800 C 195.601 174.800,196.403 179.176,197.900 180.806 C 200.055 183.153,202.714 184.310,203.400 183.200 C 203.536 182.980,204.042 182.800,204.524 182.800 C 205.587 182.799,207.600 181.149,207.600 180.277 C 207.600 179.931,207.780 179.536,208.000 179.400 C 208.641 179.004,208.405 175.508,207.650 174.221 C 206.189 171.730,200.571 170.497,199.221 172.371 M145.424 172.924 C 140.613 175.876,142.269 182.800,147.787 182.800 C 149.004 182.800,150.000 182.620,150.000 182.400 C 150.000 182.180,150.257 182.000,150.571 182.000 C 151.421 182.000,152.400 179.716,152.400 177.733 C 152.400 175.416,151.155 173.200,149.852 173.200 C 149.519 173.200,149.136 173.020,149.000 172.800 C 148.665 172.257,146.381 172.336,145.424 172.924 M204.690 173.589 C 206.464 174.671,207.397 176.948,206.736 178.583 C 205.002 182.872,199.806 182.760,197.998 178.396 C 197.090 176.202,199.765 172.803,202.400 172.803 C 202.950 172.803,203.980 173.157,204.690 173.589 M150.490 175.081 C 152.479 176.881,150.497 181.600,147.751 181.600 C 144.919 181.600,142.938 177.530,144.709 175.348 C 145.927 173.847,148.970 173.706,150.490 175.081 M247.413 175.413 C 245.991 176.836,245.661 177.743,246.400 178.200 C 246.620 178.336,246.800 178.855,246.800 179.354 C 246.800 180.873,248.387 182.000,250.526 182.000 C 251.557 182.000,252.400 181.820,252.400 181.600 C 252.400 181.380,252.730 181.200,253.132 181.200 C 254.226 181.200,255.051 179.430,254.484 178.300 C 254.236 177.805,253.981 176.968,253.917 176.441 C 253.852 175.913,253.530 175.356,253.200 175.203 C 252.870 175.050,252.197 174.716,251.705 174.462 C 250.136 173.651,248.902 173.924,247.413 175.413 M252.350 176.591 C 253.202 177.424,253.021 179.254,252.006 180.076 C 249.433 182.159,246.487 178.713,248.835 176.365 C 249.737 175.463,251.299 175.563,252.350 176.591 M224.400 177.600 C 224.400 177.820,224.122 178.000,223.782 178.000 C 220.977 178.000,220.062 184.489,222.521 186.947 C 225.134 189.561,231.600 188.799,231.600 185.877 C 231.600 185.531,231.780 185.136,232.000 185.000 C 232.220 184.864,232.400 184.234,232.400 183.600 C 232.400 182.966,232.220 182.336,232.000 182.200 C 231.769 182.057,231.600 182.435,231.600 183.095 C 231.600 184.287,229.371 186.814,227.846 187.351 C 223.485 188.886,220.064 182.017,223.893 179.414 C 226.169 177.868,229.299 178.343,230.402 180.404 C 230.979 181.482,231.600 181.409,231.600 180.262 C 231.600 179.294,230.495 178.000,229.669 178.000 C 229.411 178.000,229.200 177.820,229.200 177.600 C 229.200 177.378,228.133 177.200,226.800 177.200 C 225.467 177.200,224.400 177.378,224.400 177.600 M226.300 210.147 C 224.766 211.466,224.702 214.739,226.182 216.218 C 228.476 218.512,232.398 216.848,232.400 213.580 C 232.400 211.746,231.585 210.007,230.724 210.003 C 230.352 210.001,229.936 209.820,229.800 209.600 C 229.355 208.879,227.423 209.181,226.300 210.147 M230.778 211.774 C 231.600 212.764,231.123 214.783,229.892 215.526 C 227.725 216.834,225.586 214.468,226.832 212.140 C 227.420 211.041,229.973 210.804,230.778 211.774 M105.380 271.166 C 105.171 271.368,104.550 271.593,104.000 271.666 L 103.000 271.800 102.894 283.762 C 102.769 297.845,102.621 297.308,106.577 297.117 L 109.000 297.000 109.109 289.500 C 109.175 284.954,109.372 282.000,109.609 282.000 C 109.824 282.000,110.000 282.243,110.000 282.541 C 110.000 282.838,110.495 283.606,111.100 284.248 C 111.705 284.889,112.455 285.906,112.768 286.507 C 113.080 287.108,113.485 287.600,113.668 287.600 C 113.850 287.600,114.000 287.883,114.000 288.229 C 114.000 289.133,114.998 290.000,116.040 290.000 C 116.927 290.000,120.400 286.805,120.400 285.989 C 120.400 285.771,120.940 285.028,121.600 284.337 C 122.260 283.646,122.800 282.838,122.800 282.541 C 122.800 282.243,122.980 282.000,123.200 282.000 C 123.452 282.000,123.600 284.640,123.600 289.120 C 123.600 297.256,123.578 297.200,126.709 297.200 C 130.144 297.200,130.000 297.786,130.000 283.829 L 130.000 271.600 126.571 271.600 C 123.165 271.600,122.000 272.011,122.000 273.211 C 122.000 273.468,121.460 274.183,120.800 274.800 C 120.140 275.417,119.600 276.137,119.600 276.400 C 119.600 276.663,119.060 277.383,118.400 278.000 C 117.740 278.617,117.200 279.409,117.200 279.760 C 117.200 280.133,116.866 280.400,116.400 280.400 C 115.927 280.400,115.600 280.133,115.600 279.747 C 115.600 279.388,115.284 278.803,114.897 278.447 C 114.511 278.091,113.940 277.305,113.630 276.700 C 113.319 276.095,112.915 275.600,112.732 275.600 C 112.550 275.600,112.400 275.365,112.400 275.078 C 112.400 273.848,109.731 271.600,108.270 271.600 C 107.487 271.600,106.736 271.420,106.600 271.200 C 106.292 270.702,105.874 270.690,105.380 271.166 M200.200 271.200 C 200.064 271.420,199.333 271.600,198.576 271.600 L 197.200 271.600 197.200 283.829 C 197.200 297.741,197.071 297.200,200.400 297.200 C 203.727 297.200,203.600 297.724,203.600 283.973 C 203.600 272.933,203.539 271.842,202.900 271.357 C 202.068 270.725,200.548 270.637,200.200 271.200 M153.148 272.100 C 153.120 272.375,153.028 273.050,152.944 273.600 C 152.517 276.385,152.358 281.274,152.680 281.708 C 152.882 281.978,152.969 282.650,152.874 283.200 C 152.460 285.597,152.378 293.415,152.758 294.179 C 152.983 294.630,153.219 295.450,153.283 296.000 L 153.400 297.000 160.771 297.109 C 165.411 297.178,168.293 297.067,168.551 296.809 C 168.776 296.584,169.374 296.400,169.880 296.400 C 170.386 296.400,170.800 296.264,170.800 296.098 C 170.800 295.931,171.295 295.572,171.900 295.298 C 173.926 294.383,175.875 287.912,174.400 287.000 C 174.180 286.864,174.000 286.486,174.000 286.160 C 174.000 285.833,173.640 285.180,173.200 284.708 C 172.347 283.793,172.139 282.800,172.800 282.800 C 173.020 282.800,173.200 282.440,173.200 282.000 C 173.200 281.560,173.380 281.200,173.600 281.200 C 175.366 281.200,173.276 273.734,171.247 272.792 C 170.671 272.525,169.887 272.148,169.505 271.953 C 168.354 271.367,153.210 271.503,153.148 272.100 M189.700 272.198 C 189.394 272.545,189.200 273.939,189.200 275.783 C 189.200 278.533,189.129 278.800,188.400 278.800 C 187.960 278.800,187.600 278.620,187.600 278.400 C 187.600 278.169,186.341 278.000,184.624 278.000 C 182.987 278.000,181.536 278.180,181.400 278.400 C 181.264 278.620,180.803 278.800,180.376 278.800 C 179.949 278.800,179.600 278.980,179.600 279.200 C 179.600 279.420,179.317 279.600,178.971 279.600 C 178.154 279.600,177.600 280.213,176.500 282.338 C 175.526 284.219,175.119 292.400,176.000 292.400 C 176.220 292.400,176.400 292.676,176.400 293.013 C 176.400 293.809,178.991 296.400,179.787 296.400 C 180.124 296.400,180.400 296.580,180.400 296.800 C 180.400 297.040,182.000 297.200,184.400 297.200 C 186.800 297.200,188.400 297.040,188.400 296.800 C 188.400 296.580,188.749 296.400,189.176 296.400 C 189.603 296.400,190.064 296.580,190.200 296.800 C 190.590 297.430,193.526 297.267,194.614 296.554 C 195.528 295.955,196.031 293.764,195.399 293.132 C 194.970 292.703,194.761 276.471,195.181 276.212 C 195.802 275.828,195.689 272.832,195.029 272.171 C 194.267 271.409,190.377 271.429,189.700 272.198 M167.058 277.801 C 168.606 279.349,166.105 281.157,162.400 281.168 C 159.659 281.176,158.800 280.577,158.800 278.656 L 158.800 277.200 162.629 277.200 C 165.500 277.200,166.607 277.350,167.058 277.801 M134.800 278.390 C 134.470 278.609,133.795 278.791,133.300 278.794 C 131.973 278.803,131.883 292.094,133.200 293.508 C 133.640 293.980,134.000 294.629,134.000 294.950 C 134.000 295.271,134.540 295.772,135.200 296.064 C 135.860 296.356,136.400 296.731,136.400 296.898 C 136.400 297.413,143.145 297.241,144.005 296.704 C 144.638 296.309,144.962 296.309,145.595 296.704 C 146.674 297.378,149.526 297.331,150.229 296.629 C 150.688 296.169,150.800 294.386,150.800 287.523 L 150.800 278.989 148.720 278.495 C 147.334 278.166,146.506 278.134,146.240 278.400 C 146.020 278.620,145.516 278.800,145.120 278.800 C 144.462 278.800,144.400 279.267,144.400 284.218 C 144.400 290.062,144.275 290.421,141.739 291.865 C 140.795 292.403,138.800 291.037,138.800 289.853 C 138.800 289.494,138.625 289.200,138.411 289.200 C 138.184 289.200,137.976 286.917,137.911 283.700 L 137.800 278.200 136.600 278.096 C 135.940 278.038,135.130 278.171,134.800 278.390 M206.498 279.401 C 205.872 280.111,205.859 280.275,205.937 286.500 L 206.000 291.600 210.229 291.600 C 213.583 291.600,214.590 291.467,215.102 290.956 C 215.694 290.363,215.784 290.363,216.217 290.956 C 216.922 291.919,218.800 291.806,218.800 290.800 C 218.800 290.360,218.940 290.000,219.112 290.000 C 219.283 290.000,219.683 290.360,220.000 290.800 C 220.941 292.105,226.328 291.976,227.344 290.623 L 228.078 289.646 228.954 290.664 C 230.204 292.118,238.003 292.181,239.246 290.747 L 240.000 289.878 240.747 290.739 C 241.584 291.704,244.171 291.948,244.567 291.100 C 244.753 290.700,244.847 290.700,245.033 291.100 C 245.162 291.375,245.756 291.600,246.353 291.600 C 246.951 291.600,247.660 291.820,247.930 292.090 C 248.317 292.477,248.585 292.477,249.205 292.090 C 249.636 291.820,250.594 291.600,251.333 291.600 C 253.461 291.600,254.686 289.530,254.149 286.844 C 253.852 285.361,252.197 284.400,249.939 284.400 C 249.092 284.400,248.400 284.220,248.400 284.000 C 248.400 283.780,248.012 283.600,247.538 283.600 C 246.701 283.600,246.697 283.576,247.400 282.800 C 249.553 280.421,254.800 284.056,254.800 287.927 C 254.800 291.046,257.452 293.858,258.617 291.973 C 258.762 291.739,259.447 291.585,260.140 291.631 C 262.808 291.811,262.800 291.818,262.800 289.080 C 262.800 286.473,263.221 285.600,264.480 285.600 C 265.010 285.600,265.200 285.910,265.200 286.776 C 265.200 287.423,265.380 288.064,265.600 288.200 C 265.820 288.336,266.000 288.715,266.000 289.042 C 266.000 289.916,267.835 291.600,268.787 291.600 C 269.240 291.600,269.957 291.816,270.381 292.081 C 271.149 292.560,271.348 292.513,274.000 291.213 C 274.330 291.052,274.657 290.442,274.727 289.860 C 274.796 289.277,275.021 288.800,275.227 288.800 C 275.729 288.800,275.705 286.512,275.200 286.200 C 274.980 286.064,274.800 285.243,274.800 284.376 C 274.800 283.067,274.665 282.800,274.000 282.800 C 273.560 282.800,273.200 282.620,273.200 282.400 C 273.200 282.178,272.133 282.000,270.800 282.000 C 269.467 282.000,268.400 282.178,268.400 282.400 C 268.400 282.640,266.808 282.800,264.424 282.800 C 262.204 282.800,260.338 282.623,260.200 282.400 C 260.064 282.180,259.534 282.000,259.023 282.000 C 258.430 282.000,258.018 281.711,257.884 281.200 C 257.583 280.050,254.800 280.029,254.800 281.176 C 254.800 281.603,254.620 282.064,254.400 282.200 C 254.180 282.336,254.000 282.104,254.000 281.686 C 254.000 280.783,252.804 279.600,251.892 279.600 C 251.537 279.600,251.136 279.420,251.000 279.200 C 250.864 278.980,250.054 278.800,249.200 278.800 C 248.346 278.800,247.536 278.980,247.400 279.200 C 247.264 279.420,246.746 279.600,246.249 279.600 C 245.400 279.600,243.600 281.195,243.600 281.948 C 243.600 282.135,243.145 282.202,242.589 282.096 C 241.889 281.962,241.352 282.163,240.842 282.751 C 239.793 283.962,239.600 283.824,239.600 281.862 C 239.600 279.633,238.532 278.461,237.238 279.269 C 236.629 279.650,236.400 280.203,236.400 281.296 C 236.400 282.123,236.220 282.800,236.000 282.800 C 235.780 282.800,235.600 282.620,235.600 282.400 C 235.600 282.180,234.621 282.000,233.424 282.000 C 232.227 282.000,231.136 282.180,231.000 282.400 C 230.864 282.620,230.470 282.800,230.123 282.800 C 229.777 282.800,229.171 283.173,228.776 283.628 L 228.058 284.456 227.615 283.628 C 227.371 283.173,226.908 282.800,226.586 282.800 C 226.264 282.800,226.000 282.620,226.000 282.400 C 226.000 281.392,220.948 281.961,219.786 283.100 C 218.984 283.886,218.740 283.991,218.931 283.468 C 219.079 283.066,219.087 282.033,218.949 281.174 L 218.700 279.611 216.114 279.650 C 214.692 279.671,213.329 279.489,213.084 279.244 C 212.416 278.576,207.113 278.702,206.498 279.401 M212.400 283.200 C 212.400 284.373,212.356 284.400,210.400 284.400 C 208.444 284.400,208.400 284.373,208.400 283.200 C 208.400 282.027,208.444 282.000,210.400 282.000 C 212.356 282.000,212.400 282.027,212.400 283.200 M295.600 282.311 C 295.600 282.900,297.062 283.872,298.330 284.126 C 299.888 284.438,299.926 284.173,298.500 282.947 C 297.457 282.050,295.600 281.643,295.600 282.311 M186.000 283.902 C 186.000 284.069,186.540 284.444,187.200 284.736 C 188.044 285.109,188.400 285.547,188.400 286.210 C 188.400 286.728,188.596 287.274,188.835 287.422 C 189.148 287.615,189.148 287.812,188.835 288.125 C 188.596 288.364,188.400 288.852,188.400 289.208 C 188.400 289.564,187.907 290.285,187.304 290.809 C 185.471 292.403,182.000 291.761,182.000 289.829 C 182.000 289.483,181.820 289.200,181.600 289.200 C 180.495 289.200,181.224 286.235,182.650 284.928 C 183.946 283.741,186.000 283.112,186.000 283.902 M271.500 285.052 C 272.867 285.419,272.575 286.000,271.024 286.000 C 269.612 286.000,268.800 285.428,269.698 285.066 C 270.401 284.782,270.489 284.781,271.500 285.052 M225.426 286.100 C 226.379 288.165,223.121 290.297,221.757 288.500 C 220.516 286.866,221.432 285.239,223.605 285.215 C 224.681 285.204,225.108 285.411,225.426 286.100 M234.000 285.645 C 234.000 285.913,234.480 286.020,235.200 285.915 C 236.376 285.742,236.400 285.774,236.400 287.469 C 236.400 289.246,236.120 289.560,235.280 288.720 C 234.907 288.347,234.693 288.347,234.320 288.720 C 232.552 290.488,229.647 287.676,231.300 285.798 C 231.893 285.125,234.000 285.005,234.000 285.645 M245.400 286.000 C 246.183 286.440,247.365 286.800,248.026 286.800 C 249.534 286.800,251.227 287.865,250.933 288.630 C 250.543 289.646,246.014 288.975,246.003 287.900 C 246.001 287.735,245.460 287.600,244.800 287.600 C 243.867 287.600,243.600 287.778,243.600 288.400 C 243.600 289.429,243.276 289.411,242.339 288.330 C 241.594 287.471,241.598 287.446,242.667 286.330 C 243.955 284.986,243.658 285.022,245.400 286.000 M259.600 287.200 C 259.600 288.933,259.493 289.200,258.800 289.200 C 258.107 289.200,258.000 288.933,258.000 287.200 C 258.000 285.467,258.107 285.200,258.800 285.200 C 259.493 285.200,259.600 285.467,259.600 287.200 M166.800 287.200 C 166.800 287.420,167.160 287.600,167.600 287.600 C 168.198 287.600,168.400 287.867,168.400 288.656 C 168.400 290.396,167.427 290.773,162.900 290.787 L 158.800 290.800 158.800 288.800 L 158.800 286.800 162.800 286.800 C 165.200 286.800,166.800 286.960,166.800 287.200 M212.629 287.371 C 213.897 288.639,213.336 289.200,210.800 289.200 L 208.400 289.200 208.400 288.000 C 208.400 286.628,211.434 286.177,212.629 287.371 M294.064 288.466 C 294.029 288.833,293.453 289.373,292.785 289.666 C 291.274 290.330,291.217 292.117,292.699 292.328 C 293.779 292.481,294.525 290.923,294.284 289.023 C 294.198 288.350,294.099 288.100,294.064 288.466 M271.800 288.800 C 271.664 289.020,271.203 289.200,270.776 289.200 C 270.349 289.200,270.000 289.020,270.000 288.800 C 270.000 288.580,270.461 288.400,271.024 288.400 C 271.604 288.400,271.940 288.573,271.800 288.800 M275.600 289.218 C 275.600 289.811,277.547 291.685,278.001 291.530 C 278.210 291.458,277.921 290.815,277.361 290.100 C 276.343 288.801,275.600 288.429,275.600 289.218 M297.200 290.104 C 297.200 291.771,298.388 292.664,299.600 291.907 C 300.857 291.122,300.622 289.756,299.140 289.239 C 297.324 288.606,297.200 288.661,297.200 290.104 M173.200 314.400 L 173.200 319.600 174.800 319.600 C 176.311 319.600,176.400 319.533,176.400 318.400 C 176.400 317.267,176.489 317.200,178.000 317.200 C 178.880 317.200,179.600 317.041,179.600 316.847 C 179.600 316.652,179.960 316.399,180.400 316.284 C 181.077 316.107,181.200 316.272,181.200 317.357 C 181.200 319.314,183.831 320.676,184.567 319.100 C 184.753 318.700,184.847 318.700,185.033 319.100 C 185.191 319.438,186.291 319.600,188.433 319.600 L 191.600 319.600 191.600 318.176 C 191.600 317.329,191.762 316.853,192.000 317.000 C 192.220 317.136,192.400 317.519,192.400 317.852 C 192.400 319.464,196.384 320.504,196.413 318.900 C 196.425 318.233,196.451 318.233,196.957 318.900 C 197.831 320.051,199.353 319.791,199.878 318.400 C 200.362 317.116,201.200 316.771,201.200 317.856 C 201.200 319.499,205.716 320.341,207.102 318.956 C 207.694 318.363,207.784 318.363,208.217 318.956 C 208.882 319.865,210.508 319.760,211.127 318.769 C 211.522 318.136,211.536 317.804,211.183 317.380 C 210.827 316.951,210.861 316.682,211.332 316.211 C 212.714 314.829,213.671 315.816,213.939 318.900 C 214.064 320.338,216.330 319.802,216.475 318.300 C 216.630 316.692,217.280 316.727,217.758 318.370 C 218.193 319.864,220.400 320.243,220.400 318.824 C 220.400 317.627,221.021 317.519,221.607 318.614 C 221.978 319.306,222.473 319.600,223.268 319.600 L 224.400 319.600 224.400 316.000 C 224.400 313.052,224.290 312.400,223.795 312.400 C 223.462 312.400,222.832 312.177,222.395 311.904 C 221.762 311.509,221.438 311.509,220.805 311.904 C 219.807 312.527,218.303 312.543,217.697 311.937 C 217.346 311.586,217.084 311.598,216.617 311.986 C 216.124 312.395,215.879 312.398,215.400 312.000 C 214.921 311.602,214.677 311.604,214.188 312.010 C 213.730 312.390,213.338 312.409,212.628 312.086 C 212.107 311.848,211.559 311.774,211.412 311.921 C 211.162 312.171,209.567 312.344,207.200 312.379 C 206.650 312.387,206.140 312.215,206.067 311.997 C 205.993 311.778,205.128 311.600,204.143 311.600 C 203.102 311.600,202.452 311.439,202.590 311.216 C 202.720 311.005,202.598 310.465,202.317 310.016 C 201.370 308.499,197.200 309.137,197.200 310.800 C 197.200 311.885,196.062 312.463,195.605 311.609 C 195.125 310.712,192.996 310.494,191.595 311.200 C 191.158 311.420,190.440 311.782,190.000 312.003 C 189.462 312.275,189.200 312.275,189.200 312.003 C 189.200 311.782,188.480 311.600,187.600 311.600 C 186.720 311.600,186.000 311.780,186.000 312.000 C 186.000 312.220,185.640 312.400,185.200 312.400 C 184.578 312.400,184.400 312.133,184.400 311.200 C 184.400 310.027,184.356 310.000,182.400 310.000 C 181.300 310.000,180.400 309.820,180.400 309.600 C 180.400 309.363,178.933 309.200,176.800 309.200 L 173.200 309.200 173.200 314.400 M178.000 313.200 C 178.000 313.733,177.733 314.000,177.200 314.000 C 176.667 314.000,176.400 313.733,176.400 313.200 C 176.400 312.667,176.667 312.400,177.200 312.400 C 177.733 312.400,178.000 312.667,178.000 313.200 M196.400 316.000 C 196.400 317.320,196.229 317.445,195.438 316.707 C 195.041 316.335,195.019 316.038,195.351 315.507 C 196.005 314.460,196.400 314.646,196.400 316.000 M188.400 315.933 C 188.400 316.497,187.949 316.755,187.361 316.530 C 186.526 316.209,186.683 315.600,187.600 315.600 C 188.040 315.600,188.400 315.750,188.400 315.933 M205.200 316.000 C 205.200 316.220,204.840 316.400,204.400 316.400 C 203.960 316.400,203.600 316.220,203.600 316.000 C 203.600 315.780,203.960 315.600,204.400 315.600 C 204.840 315.600,205.200 315.780,205.200 316.000 " stroke="none" fill="#4b4f64" fill-rule="evenodd"></path><path id="path1" d="M216.572 108.556 C 213.696 109.906,212.537 111.212,210.902 114.946 C 209.887 117.263,210.780 121.563,212.892 124.529 L 213.728 125.704 212.420 128.279 C 211.701 129.695,210.502 131.653,209.756 132.630 C 209.010 133.607,208.400 134.602,208.400 134.839 C 208.400 135.077,208.012 135.586,207.537 135.970 C 206.951 136.445,206.686 137.089,206.712 137.979 C 206.734 138.763,206.438 139.622,205.975 140.120 C 204.958 141.210,204.971 143.226,206.000 144.107 C 206.440 144.484,206.800 145.201,206.800 145.700 C 206.800 146.858,208.739 149.021,209.287 148.473 C 209.857 147.903,209.354 146.684,208.003 145.358 C 206.850 144.227,206.402 142.800,207.200 142.800 C 207.420 142.800,207.600 142.421,207.600 141.958 C 207.600 141.495,208.005 140.617,208.500 140.008 C 208.995 139.399,209.714 138.383,210.099 137.750 C 211.625 135.238,213.484 132.474,215.149 130.244 L 216.898 127.901 219.123 128.163 C 221.416 128.432,222.400 128.925,222.400 129.803 C 222.400 130.284,222.755 131.551,224.418 137.000 C 224.820 138.320,225.299 140.016,225.481 140.769 C 225.943 142.677,226.520 142.686,227.354 140.796 C 228.058 139.200,227.980 136.413,227.203 135.400 C 227.034 135.180,226.572 133.304,226.176 131.230 L 225.456 127.461 226.428 126.830 C 237.538 119.627,228.538 102.940,216.572 108.556 M164.200 117.477 C 159.541 119.981,157.941 123.578,159.273 128.557 L 159.746 130.325 155.120 134.863 C 150.143 139.744,148.975 141.236,149.354 142.224 C 149.873 143.576,152.400 141.912,152.400 140.220 C 152.400 139.220,153.775 138.275,154.771 138.591 C 155.279 138.752,156.240 138.116,158.034 136.430 C 161.502 133.171,162.013 132.931,164.225 133.522 C 166.648 134.170,167.772 134.127,171.092 133.255 C 174.112 132.462,174.299 132.492,175.273 133.918 C 175.968 134.934,181.409 139.577,183.600 141.023 C 185.711 142.415,188.000 142.739,188.000 141.645 C 188.000 141.013,187.751 140.800,187.013 140.800 C 186.289 140.800,186.088 140.636,186.261 140.186 C 186.609 139.280,181.223 134.301,178.286 132.814 C 176.293 131.805,175.533 130.034,175.834 127.097 C 176.517 120.434,169.497 114.630,164.200 117.477 M193.167 119.708 C 189.181 122.387,192.433 128.458,196.678 126.263 C 198.184 125.484,199.151 122.889,198.482 121.421 C 197.501 119.267,195.015 118.466,193.167 119.708 M238.004 124.195 C 237.301 125.043,237.824 126.660,238.896 126.947 C 240.441 127.361,240.807 127.234,241.221 126.144 C 241.947 124.236,239.301 122.633,238.004 124.195 M251.199 125.954 C 250.430 126.632,249.656 127.190,249.480 127.194 C 248.974 127.204,248.000 129.848,248.000 131.209 C 248.000 132.638,249.847 135.200,250.876 135.200 C 251.248 135.200,251.664 135.380,251.800 135.600 C 251.936 135.820,252.442 136.000,252.924 136.000 C 254.087 136.000,256.112 138.568,256.206 140.162 C 256.285 141.490,256.463 142.051,257.653 144.717 C 258.075 145.662,258.558 146.349,258.726 146.245 C 259.239 145.929,258.847 141.251,258.204 140.007 C 257.292 138.244,257.448 135.678,258.600 133.515 C 261.372 128.308,255.424 122.232,251.199 125.954 M136.000 138.516 C 135.450 138.793,134.942 139.421,134.872 139.910 C 134.732 140.884,134.387 141.027,133.741 140.381 C 133.449 140.089,133.000 140.108,132.261 140.445 C 131.070 140.988,130.908 141.765,131.800 142.657 C 132.130 142.987,132.400 143.694,132.400 144.229 C 132.400 145.561,133.023 145.448,133.664 144.000 C 134.176 142.844,134.292 142.800,136.798 142.798 C 138.229 142.797,140.100 142.601,140.955 142.364 C 142.071 142.054,142.586 142.054,142.779 142.365 C 143.059 142.819,148.389 142.804,148.396 142.350 C 148.398 142.213,147.860 141.992,147.200 141.860 C 146.405 141.701,146.000 141.379,146.000 140.906 C 146.000 140.187,144.497 138.944,143.853 139.131 C 143.663 139.186,143.084 138.954,142.568 138.616 C 141.418 137.863,137.416 137.802,136.000 138.516 M184.967 139.057 C 185.105 139.419,185.129 139.804,185.019 139.914 C 184.764 140.170,183.600 139.216,183.600 138.751 C 183.600 138.130,184.706 138.378,184.967 139.057 M196.000 140.226 C 195.230 140.488,194.542 140.995,194.471 141.352 C 194.321 142.102,194.536 142.135,196.303 141.628 C 197.331 141.333,197.600 141.374,197.600 141.823 C 197.600 142.551,199.214 142.493,201.600 141.681 C 203.953 140.880,204.462 140.400,202.960 140.400 C 202.300 140.400,201.558 140.198,201.310 139.950 C 200.977 139.617,200.526 139.617,199.571 139.950 C 198.862 140.197,198.083 140.253,197.841 140.074 C 197.598 139.895,196.770 139.963,196.000 140.226 M218.667 141.067 C 218.120 141.613,218.428 142.436,219.300 142.760 C 220.464 143.193,221.200 142.898,221.200 142.000 C 221.200 141.037,219.371 140.363,218.667 141.067 M227.703 142.222 C 227.202 142.764,227.539 147.273,228.124 147.858 C 229.353 149.087,229.540 145.455,228.367 143.129 C 228.152 142.701,228.198 142.401,228.495 142.302 C 228.764 142.212,228.800 142.049,228.580 141.915 C 228.371 141.788,227.976 141.926,227.703 142.222 M189.200 143.200 C 189.200 143.733,189.467 144.000,190.000 144.000 C 190.541 144.000,190.800 144.267,190.800 144.824 C 190.800 145.277,190.958 145.550,191.150 145.431 C 191.902 144.966,191.499 143.283,190.531 142.841 C 189.248 142.257,189.200 142.270,189.200 143.200 M243.277 145.552 C 242.882 146.684,242.904 146.709,244.530 146.927 C 246.442 147.183,246.709 147.054,246.008 146.210 C 245.730 145.874,245.659 145.594,245.851 145.587 C 246.380 145.568,244.719 144.400,244.163 144.400 C 243.896 144.400,243.497 144.919,243.277 145.552 M260.000 149.576 C 260.000 150.003,260.180 150.464,260.400 150.600 C 260.627 150.740,260.800 150.404,260.800 149.824 C 260.800 149.261,260.620 148.800,260.400 148.800 C 260.180 148.800,260.000 149.149,260.000 149.576 " stroke="none" fill="#c942f6" fill-rule="evenodd"></path><path id="path2" d="M220.300 107.082 C 220.795 107.178,221.605 107.178,222.100 107.082 C 222.595 106.987,222.190 106.909,221.200 106.909 C 220.210 106.909,219.805 106.987,220.300 107.082 M216.076 108.195 C 213.229 109.699,210.311 113.366,210.432 115.287 C 210.450 115.569,210.675 115.350,210.933 114.800 C 212.694 111.034,213.726 109.892,216.572 108.556 C 218.128 107.826,219.040 107.241,218.600 107.257 C 218.160 107.272,217.024 107.694,216.076 108.195 M227.881 109.930 C 233.165 115.050,232.490 122.900,226.428 126.830 L 225.456 127.461 226.176 131.230 C 226.572 133.304,227.034 135.180,227.203 135.400 C 227.980 136.413,228.058 139.200,227.354 140.796 C 226.520 142.686,225.943 142.677,225.481 140.769 C 225.299 140.016,224.820 138.320,224.418 137.000 C 222.755 131.551,222.400 130.284,222.400 129.803 C 222.400 128.925,221.416 128.432,219.123 128.163 L 216.898 127.901 215.149 130.244 C 213.484 132.474,211.625 135.238,210.099 137.750 C 209.714 138.383,208.995 139.399,208.500 140.008 C 208.005 140.617,207.600 141.495,207.600 141.958 C 207.600 142.421,207.420 142.800,207.200 142.800 C 206.402 142.800,206.850 144.227,208.003 145.358 C 209.354 146.684,209.857 147.903,209.287 148.473 C 208.739 149.021,206.800 146.858,206.800 145.700 C 206.800 145.201,206.440 144.484,206.000 144.107 C 204.971 143.226,204.958 141.210,205.975 140.120 C 206.438 139.622,206.734 138.763,206.712 137.979 C 206.686 137.089,206.951 136.445,207.537 135.970 C 208.012 135.586,208.400 135.077,208.400 134.839 C 208.400 134.602,209.010 133.607,209.756 132.630 C 210.502 131.653,211.696 129.704,212.410 128.299 L 213.707 125.745 212.696 124.173 C 212.139 123.308,211.449 121.880,211.162 121.000 C 210.807 119.912,210.591 119.634,210.485 120.132 C 210.283 121.079,211.107 123.152,212.147 124.314 C 213.245 125.540,213.017 126.063,208.227 133.300 L 204.321 139.200 199.910 139.200 C 195.788 139.200,195.342 139.280,193.107 140.416 L 190.714 141.631 188.657 140.042 C 187.526 139.167,186.240 138.121,185.800 137.716 C 185.360 137.311,183.110 135.463,180.800 133.609 C 175.538 129.386,175.186 128.871,176.600 127.457 C 177.391 126.666,177.391 124.159,176.600 123.855 C 176.270 123.729,176.000 123.347,176.000 123.007 C 176.000 120.899,171.600 116.762,169.422 116.823 C 168.905 116.838,169.342 117.188,170.600 117.769 C 174.402 119.523,176.269 122.850,175.834 127.097 C 175.533 130.032,176.290 131.798,178.286 132.821 C 181.387 134.410,185.616 138.400,184.200 138.400 C 183.477 138.400,183.427 138.867,184.080 139.520 C 184.815 140.255,185.283 140.092,185.000 139.200 C 184.860 138.760,184.916 138.400,185.124 138.400 C 185.770 138.400,186.501 139.559,186.257 140.195 C 186.089 140.634,186.295 140.800,187.013 140.800 C 187.751 140.800,188.000 141.013,188.000 141.645 C 188.000 142.739,185.711 142.415,183.600 141.023 C 181.409 139.577,175.968 134.934,175.273 133.918 C 174.299 132.492,174.112 132.462,171.092 133.255 C 167.772 134.127,166.648 134.170,164.225 133.522 C 162.013 132.931,161.502 133.171,158.034 136.430 C 156.240 138.116,155.279 138.752,154.771 138.591 C 153.775 138.275,152.400 139.220,152.400 140.220 C 152.400 141.912,149.873 143.576,149.354 142.224 C 148.975 141.236,150.143 139.744,155.120 134.863 L 159.746 130.325 159.273 128.557 C 157.941 123.578,159.541 119.981,164.200 117.477 C 164.860 117.122,165.196 116.825,164.946 116.816 C 161.378 116.690,158.245 121.495,158.504 126.695 L 158.688 130.390 155.044 133.689 C 153.040 135.504,151.130 137.276,150.800 137.627 C 149.070 139.470,148.326 139.635,146.193 138.645 C 141.007 136.239,137.202 136.204,132.464 138.516 C 125.868 141.735,122.220 151.019,125.243 156.895 C 125.439 157.277,125.600 157.763,125.600 157.975 C 125.600 158.767,128.113 162.044,129.530 163.100 C 130.339 163.703,131.090 164.296,131.200 164.419 C 131.943 165.248,135.783 166.556,138.881 167.036 C 144.000 167.830,153.600 160.623,153.600 155.986 C 153.600 155.580,153.780 155.136,154.000 155.000 C 155.152 154.288,154.310 149.085,152.206 143.918 C 151.896 143.157,151.926 143.124,157.558 138.000 C 162.296 133.690,161.979 133.841,164.916 134.496 C 167.411 135.053,170.512 134.798,171.380 133.965 C 172.291 133.091,175.536 134.960,178.400 138.008 C 178.510 138.125,179.410 138.841,180.400 139.600 C 181.390 140.359,182.290 141.075,182.400 141.192 C 182.510 141.309,183.230 141.878,184.000 142.457 C 187.143 144.819,187.311 145.054,187.031 146.686 C 186.068 152.288,186.372 155.660,188.056 158.062 C 189.413 159.998,189.631 159.630,181.400 169.301 C 177.382 174.022,176.185 174.825,174.971 173.611 C 173.672 172.312,167.144 172.868,166.000 174.375 C 165.890 174.520,165.215 175.047,164.500 175.547 C 162.980 176.608,162.557 178.893,163.948 178.529 C 164.504 178.384,164.766 178.610,164.966 179.409 C 165.194 180.314,165.376 180.433,166.118 180.163 C 168.374 179.344,176.977 179.747,177.392 180.692 C 178.179 182.488,179.580 182.111,179.594 180.100 C 179.597 179.605,179.788 179.200,180.018 179.200 C 180.275 179.200,180.340 178.688,180.187 177.873 C 179.954 176.631,180.164 176.306,183.469 172.783 C 185.411 170.713,187.360 168.591,187.800 168.067 C 188.240 167.542,189.441 166.213,190.469 165.113 L 192.337 163.112 194.869 163.806 C 198.350 164.761,200.384 164.976,200.915 164.445 C 201.160 164.200,201.819 163.995,202.380 163.989 C 210.001 163.905,214.490 152.004,209.725 144.519 C 208.051 141.891,207.830 142.699,211.939 136.414 C 213.886 133.436,215.786 130.496,216.161 129.881 C 216.794 128.842,217.004 128.770,219.061 128.881 C 221.564 129.015,221.645 129.133,222.757 134.200 C 223.047 135.520,223.430 136.960,223.608 137.400 C 223.787 137.840,224.050 138.650,224.194 139.200 C 224.337 139.750,224.634 140.830,224.854 141.600 C 225.073 142.370,225.405 143.630,225.591 144.400 C 226.507 148.199,227.288 151.078,227.598 151.800 C 228.506 153.910,228.453 155.500,227.449 156.290 C 223.244 159.598,224.132 167.445,228.960 169.638 C 232.859 171.408,237.292 170.323,239.848 166.973 C 241.083 165.354,241.465 165.327,248.000 166.410 C 249.430 166.647,251.273 166.825,252.096 166.805 C 253.936 166.760,255.200 167.390,255.200 168.353 C 255.200 172.160,260.394 176.264,265.400 176.412 C 268.200 176.495,268.480 176.453,268.199 175.999 C 268.063 175.778,267.485 175.714,266.916 175.857 C 266.147 176.050,265.960 175.988,266.189 175.618 C 266.406 175.266,267.109 175.196,268.584 175.381 C 270.569 175.629,270.733 175.577,271.951 174.321 C 275.766 170.384,275.984 169.949,276.028 166.177 C 276.097 160.279,272.852 156.327,267.442 155.719 C 264.898 155.433,264.000 154.987,264.000 154.010 C 264.000 153.590,263.820 153.136,263.600 153.000 C 263.380 152.864,263.200 152.324,263.200 151.800 C 263.200 151.276,263.040 150.748,262.844 150.627 C 262.649 150.506,262.401 149.821,262.293 149.104 C 262.087 147.723,260.252 142.169,258.850 138.681 C 258.203 137.073,258.282 136.439,259.402 134.232 C 263.477 126.199,252.455 120.267,248.045 128.120 C 246.273 131.275,248.202 136.043,251.600 136.907 C 252.370 137.102,253.149 137.407,253.331 137.583 C 253.732 137.969,257.197 147.746,257.487 149.305 C 257.600 149.913,257.851 150.508,258.046 150.629 C 258.241 150.749,258.400 151.163,258.400 151.548 C 258.400 151.934,258.760 152.995,259.200 153.906 C 260.292 156.166,260.254 156.341,258.176 158.604 C 257.173 159.697,256.135 161.043,255.869 161.595 C 255.361 162.653,250.116 162.904,248.326 161.957 C 247.956 161.760,246.516 161.598,245.126 161.595 C 241.447 161.587,240.987 161.381,240.362 159.467 C 239.524 156.903,236.478 154.400,234.195 154.400 C 233.457 154.400,233.151 154.129,232.952 153.300 C 232.808 152.695,232.565 152.020,232.412 151.800 C 232.259 151.580,231.900 150.320,231.613 149.000 C 231.327 147.680,230.833 145.790,230.516 144.800 C 230.199 143.810,229.765 142.190,229.550 141.200 C 228.924 138.304,228.535 136.786,227.602 133.600 C 226.025 128.210,226.015 128.292,228.520 125.827 C 231.348 123.044,233.296 116.448,231.600 115.400 C 231.380 115.264,231.200 114.699,231.200 114.144 C 231.200 113.044,228.789 109.829,227.435 109.123 C 226.904 108.847,227.067 109.141,227.881 109.930 M210.109 117.600 C 210.109 118.590,210.187 118.995,210.282 118.500 C 210.378 118.005,210.378 117.195,210.282 116.700 C 210.187 116.205,210.109 116.610,210.109 117.600 M192.568 119.154 C 189.339 121.123,190.280 126.596,193.975 127.335 C 198.447 128.229,201.114 122.900,197.772 119.747 C 196.107 118.178,194.475 117.992,192.568 119.154 M197.118 119.863 C 199.350 121.271,199.092 125.015,196.678 126.263 C 192.433 128.458,189.181 122.387,193.167 119.708 C 194.592 118.750,195.406 118.782,197.118 119.863 M237.462 123.931 C 235.411 126.198,238.878 129.278,241.125 127.184 C 242.843 125.584,241.770 123.200,239.330 123.200 C 238.667 123.200,237.826 123.529,237.462 123.931 M240.949 124.344 C 241.707 125.181,241.253 127.205,240.310 127.195 C 238.961 127.180,237.970 126.620,237.751 125.747 C 237.270 123.830,239.571 122.820,240.949 124.344 M257.015 126.185 C 259.732 128.257,260.214 130.484,258.600 133.515 C 257.448 135.678,257.292 138.244,258.204 140.007 C 258.847 141.251,259.239 145.929,258.726 146.245 C 258.558 146.349,258.075 145.662,257.653 144.717 C 256.463 142.051,256.285 141.490,256.206 140.162 C 256.112 138.568,254.087 136.000,252.924 136.000 C 252.442 136.000,251.936 135.820,251.800 135.600 C 251.664 135.380,251.248 135.200,250.876 135.200 C 249.847 135.200,248.000 132.638,248.000 131.209 C 248.000 129.848,248.974 127.204,249.480 127.194 C 249.656 127.190,250.430 126.632,251.199 125.954 C 252.905 124.451,254.844 124.528,257.015 126.185 M142.568 138.616 C 143.084 138.954,143.663 139.186,143.853 139.131 C 144.497 138.944,146.000 140.187,146.000 140.906 C 146.000 141.379,146.405 141.701,147.200 141.860 C 147.860 141.992,148.398 142.213,148.396 142.350 C 148.389 142.804,143.059 142.819,142.779 142.365 C 142.586 142.054,142.071 142.054,140.955 142.364 C 140.100 142.601,138.229 142.797,136.798 142.798 C 134.292 142.800,134.176 142.844,133.664 144.000 C 133.023 145.448,132.400 145.561,132.400 144.229 C 132.400 143.694,132.130 142.987,131.800 142.657 C 130.908 141.765,131.070 140.988,132.261 140.445 C 133.000 140.108,133.449 140.089,133.741 140.381 C 134.387 141.027,134.732 140.884,134.872 139.910 C 135.131 138.109,140.433 137.217,142.568 138.616 M199.571 139.950 C 200.526 139.617,200.977 139.617,201.310 139.950 C 201.558 140.198,202.300 140.400,202.960 140.400 C 204.462 140.400,203.953 140.880,201.600 141.681 C 199.214 142.493,197.600 142.551,197.600 141.823 C 197.600 141.374,197.331 141.333,196.303 141.628 C 194.536 142.135,194.321 142.102,194.471 141.352 C 194.624 140.584,197.206 139.605,197.841 140.074 C 198.083 140.253,198.862 140.197,199.571 139.950 M218.340 139.854 C 217.292 140.155,216.630 142.139,217.248 143.128 C 218.387 144.953,220.531 145.002,221.887 143.235 C 223.328 141.358,220.961 139.102,218.340 139.854 M220.567 141.043 C 221.319 141.331,221.412 142.634,220.700 142.905 C 219.947 143.191,218.400 142.501,218.400 141.880 C 218.400 140.855,219.237 140.532,220.567 141.043 M228.495 142.302 C 228.198 142.401,228.152 142.701,228.367 143.129 C 229.540 145.455,229.353 149.087,228.124 147.858 C 226.966 146.699,227.388 141.190,228.580 141.915 C 228.800 142.049,228.764 142.212,228.495 142.302 M190.531 142.841 C 191.499 143.283,191.902 144.966,191.150 145.431 C 190.958 145.550,190.800 145.277,190.800 144.824 C 190.800 144.267,190.541 144.000,190.000 144.000 C 189.467 144.000,189.200 143.733,189.200 143.200 C 189.200 142.270,189.248 142.257,190.531 142.841 M243.236 143.656 C 239.815 145.427,238.924 147.619,240.615 150.108 C 242.567 152.980,245.505 153.312,247.900 150.931 C 250.909 147.940,246.935 141.741,243.236 143.656 M245.424 144.987 C 245.851 145.310,246.043 145.580,245.851 145.587 C 245.659 145.594,245.730 145.874,246.008 146.210 C 246.709 147.054,246.442 147.183,244.530 146.927 C 242.904 146.709,242.882 146.684,243.277 145.552 C 243.725 144.265,244.277 144.120,245.424 144.987 M260.800 149.824 C 260.800 150.404,260.627 150.740,260.400 150.600 C 260.180 150.464,260.000 150.003,260.000 149.576 C 260.000 149.149,260.180 148.800,260.400 148.800 C 260.620 148.800,260.800 149.261,260.800 149.824 M167.434 152.520 C 165.793 154.672,166.265 157.786,168.400 158.884 C 168.950 159.167,169.544 159.624,169.720 159.899 C 170.163 160.593,171.576 160.528,171.855 159.800 C 171.982 159.470,172.327 159.200,172.622 159.200 C 173.493 159.200,175.200 156.631,175.200 155.321 C 175.200 151.489,169.727 149.514,167.434 152.520 M201.309 173.540 C 199.236 174.145,197.974 176.397,199.400 176.945 C 199.730 177.071,200.000 177.611,200.000 178.145 C 200.000 179.270,200.647 179.600,202.856 179.600 C 203.815 179.600,204.349 179.759,204.200 180.000 C 204.064 180.220,204.229 180.400,204.567 180.400 C 204.905 180.400,205.540 179.657,205.979 178.749 L 206.777 177.098 205.546 175.385 C 204.869 174.442,203.930 173.568,203.458 173.441 C 202.497 173.183,202.536 173.182,201.309 173.540 M145.227 175.962 C 144.184 177.427,144.180 178.000,145.213 178.000 C 145.659 178.000,146.125 178.261,146.248 178.581 C 147.001 180.544,150.451 180.017,150.620 177.912 C 150.852 175.026,146.909 173.600,145.227 175.962 M249.360 177.419 C 249.062 178.606,249.318 178.994,250.183 178.662 C 251.013 178.343,250.969 177.600,250.120 177.600 C 249.266 177.600,249.889 176.952,251.000 176.685 C 251.608 176.539,251.538 176.482,250.708 176.446 C 249.852 176.410,249.560 176.621,249.360 177.419 M225.012 181.717 C 224.841 182.112,224.813 182.547,224.951 182.684 C 225.357 183.090,225.684 182.520,225.497 181.731 C 225.332 181.033,225.310 181.032,225.012 181.717 " stroke="none" fill="#9e47f3" fill-rule="evenodd"></path><path id="path3" d="M224.509 162.800 C 224.509 163.790,224.587 164.195,224.682 163.700 C 224.778 163.205,224.778 162.395,224.682 161.900 C 224.587 161.405,224.509 161.810,224.509 162.800 M276.443 166.067 C 276.419 167.094,276.288 168.264,276.151 168.667 C 275.965 169.213,276.073 169.171,276.574 168.499 C 277.122 167.765,277.176 167.282,276.866 165.899 L 276.486 164.200 276.443 166.067 M240.576 166.230 C 240.149 166.576,240.039 166.737,240.331 166.587 C 240.624 166.437,241.344 166.169,241.931 165.991 C 242.789 165.733,242.837 165.662,242.176 165.634 C 241.724 165.615,241.004 165.883,240.576 166.230 M182.575 167.300 L 181.400 168.600 182.700 167.425 C 183.415 166.779,184.000 166.194,184.000 166.125 C 184.000 165.816,183.670 166.088,182.575 167.300 M180.175 170.100 L 179.000 171.400 180.300 170.225 C 181.015 169.579,181.600 168.994,181.600 168.925 C 181.600 168.616,181.270 168.888,180.175 170.100 M184.418 172.134 L 183.037 173.800 184.718 172.219 C 185.643 171.349,186.400 170.584,186.400 170.519 C 186.400 170.059,185.594 170.716,184.418 172.134 M230.938 170.894 C 231.192 171.056,232.120 171.188,233.000 171.188 C 233.880 171.188,234.808 171.056,235.062 170.894 C 235.316 170.732,234.388 170.600,233.000 170.600 C 231.612 170.600,230.684 170.732,230.938 170.894 M168.834 172.371 C 168.469 172.602,169.252 172.725,171.034 172.718 C 172.965 172.709,173.498 172.611,172.800 172.393 C 171.403 171.956,169.506 171.945,168.834 172.371 M273.218 173.734 L 271.837 175.400 273.518 173.819 C 274.443 172.949,275.200 172.184,275.200 172.119 C 275.200 171.659,274.394 172.316,273.218 173.734 M177.773 172.844 C 177.607 173.112,176.924 173.196,176.049 173.055 C 175.048 172.895,174.785 172.941,175.200 173.205 C 176.096 173.777,177.437 173.678,178.000 173.000 C 178.274 172.670,178.397 172.400,178.273 172.400 C 178.149 172.400,177.924 172.600,177.773 172.844 M200.938 173.106 C 200.684 173.268,201.342 173.400,202.400 173.400 C 203.458 173.400,204.116 173.268,203.862 173.106 C 203.608 172.944,202.950 172.812,202.400 172.812 C 201.850 172.812,201.192 172.944,200.938 173.106 M257.198 173.448 C 257.700 174.253,259.174 175.389,259.377 175.128 C 259.431 175.057,258.846 174.463,258.076 173.807 C 257.057 172.938,256.818 172.840,257.198 173.448 M150.052 175.373 C 150.567 175.907,151.065 176.269,151.158 176.175 C 151.397 175.936,149.958 174.400,149.496 174.400 C 149.287 174.400,149.537 174.838,150.052 175.373 M163.375 175.700 L 162.200 177.000 163.500 175.825 C 164.712 174.730,164.984 174.400,164.675 174.400 C 164.606 174.400,164.021 174.985,163.375 175.700 M197.803 176.792 C 197.664 177.227,197.737 177.902,197.963 178.292 C 198.300 178.870,198.378 178.724,198.388 177.500 C 198.401 175.842,198.187 175.582,197.803 176.792 M206.560 177.447 C 206.560 178.652,206.624 178.766,206.923 178.095 C 207.140 177.609,207.140 177.022,206.923 176.634 C 206.654 176.153,206.560 176.362,206.560 177.447 M223.862 179.436 C 223.024 180.005,222.452 180.585,222.591 180.724 C 222.730 180.863,222.969 180.792,223.122 180.565 C 224.330 178.777,227.038 178.338,229.100 179.596 C 229.815 180.032,230.400 180.298,230.400 180.188 C 230.400 178.575,225.892 178.056,223.862 179.436 M248.000 179.102 C 248.000 180.599,250.688 181.173,252.056 179.968 L 253.000 179.136 252.011 179.768 C 250.664 180.629,249.782 180.562,248.816 179.525 C 248.367 179.043,248.000 178.853,248.000 179.102 M198.800 179.799 C 199.816 181.151,200.393 181.670,200.726 181.532 C 200.901 181.459,200.405 180.860,199.622 180.201 C 198.840 179.541,198.470 179.360,198.800 179.799 M181.606 181.246 C 181.600 182.718,182.837 184.800,183.718 184.800 C 183.971 184.800,183.778 184.520,183.289 184.177 C 182.689 183.757,182.398 183.139,182.394 182.277 C 182.391 181.575,182.213 180.730,182.000 180.400 C 181.710 179.952,181.611 180.165,181.606 181.246 M230.400 181.189 C 230.400 181.389,230.556 181.649,230.746 181.767 C 231.673 182.340,230.530 185.234,228.973 186.254 C 228.424 186.614,228.074 187.007,228.195 187.128 C 228.316 187.249,229.131 186.648,230.007 185.793 C 231.738 184.103,232.274 181.544,231.000 181.055 C 230.670 180.929,230.400 180.989,230.400 181.189 M160.514 183.400 C 160.517 184.500,160.595 184.903,160.687 184.295 C 160.779 183.686,160.777 182.786,160.682 182.295 C 160.587 181.803,160.511 182.300,160.514 183.400 M184.433 184.949 C 184.845 185.317,187.200 186.400,187.200 186.221 C 187.200 185.990,184.982 184.800,184.553 184.800 C 184.396 184.800,184.342 184.867,184.433 184.949 M222.831 185.501 C 223.099 185.930,223.669 186.501,224.098 186.768 C 225.445 187.610,225.225 187.020,223.753 185.846 C 222.737 185.035,222.480 184.939,222.831 185.501 M161.281 187.500 C 161.536 188.105,162.082 188.960,162.494 189.400 C 163.006 189.947,162.909 189.600,162.187 188.300 C 161.020 186.200,160.562 185.795,161.281 187.500 M189.740 187.646 C 191.027 188.310,192.158 188.775,192.253 188.680 C 192.453 188.480,188.301 186.390,187.760 186.419 C 187.562 186.430,188.453 186.982,189.740 187.646 M246.000 186.800 C 245.205 187.314,246.204 187.314,247.400 186.800 L 248.200 186.456 247.400 186.434 C 246.960 186.422,246.330 186.587,246.000 186.800 M253.600 186.829 C 259.339 189.386,261.286 191.445,262.650 196.400 C 263.090 197.996,263.149 198.061,263.173 196.975 C 263.257 193.178,258.065 187.439,253.800 186.615 C 252.637 186.391,252.631 186.397,253.600 186.829 M242.376 189.057 C 239.997 191.088,238.693 193.076,237.861 195.940 C 237.359 197.667,237.209 197.817,235.760 198.043 L 234.200 198.286 235.886 198.343 C 237.683 198.404,238.400 197.739,238.400 196.013 C 238.400 193.861,241.174 190.122,244.404 187.921 C 244.952 187.548,245.209 187.233,244.976 187.221 C 244.743 187.209,243.573 188.036,242.376 189.057 M179.518 189.868 C 178.573 190.875,176.900 192.124,175.800 192.645 C 173.616 193.680,173.847 193.958,176.106 193.013 C 176.878 192.691,178.306 191.631,179.280 190.657 C 180.253 189.684,181.398 188.818,181.825 188.732 C 182.518 188.593,182.528 188.548,181.918 188.308 C 181.429 188.115,180.747 188.559,179.518 189.868 M182.800 188.972 C 182.800 189.251,188.508 192.025,188.696 191.837 C 188.848 191.685,183.418 188.800,182.978 188.800 C 182.880 188.800,182.800 188.878,182.800 188.972 M163.589 190.987 C 165.167 192.888,170.945 194.815,172.800 194.058 C 173.671 193.703,173.531 193.647,171.715 193.625 C 169.305 193.596,165.633 192.341,164.592 191.192 C 163.772 190.285,162.850 190.097,163.589 190.987 M207.000 191.600 C 206.431 191.845,206.893 191.950,208.600 191.966 C 210.289 191.981,210.822 191.873,210.400 191.600 C 209.674 191.131,208.091 191.131,207.000 191.600 M189.200 192.162 C 189.200 192.419,196.553 196.000,197.080 196.000 C 198.237 196.000,198.765 197.599,198.167 199.293 C 195.202 207.697,205.499 216.527,213.406 212.360 C 216.378 210.794,219.200 207.358,219.200 205.305 C 219.200 202.941,219.742 202.800,228.823 202.800 C 238.198 202.800,237.923 202.721,239.544 205.883 C 239.972 206.718,240.790 207.836,241.361 208.370 C 242.709 209.628,242.672 210.553,241.192 212.561 C 240.527 213.462,239.005 215.730,237.810 217.600 C 236.615 219.470,235.171 221.670,234.600 222.490 L 233.563 223.979 230.082 223.969 C 227.370 223.962,226.228 224.141,224.919 224.780 C 223.995 225.231,223.072 225.600,222.868 225.600 C 222.664 225.600,221.789 226.545,220.923 227.700 C 214.849 235.805,219.798 245.840,229.842 245.784 C 238.639 245.735,243.435 235.554,238.260 227.911 C 237.406 226.650,236.946 227.544,243.600 217.539 L 247.400 211.825 249.800 211.930 C 256.516 212.226,263.306 206.553,263.153 200.774 L 263.106 199.000 262.796 200.832 C 262.090 205.003,258.501 209.349,254.941 210.343 C 253.874 210.641,252.458 211.066,251.797 211.288 C 251.044 211.540,250.070 211.556,249.197 211.331 C 247.100 210.791,246.128 211.079,245.851 212.322 C 245.430 214.213,240.375 220.656,239.932 219.865 C 239.438 218.982,238.000 219.688,238.000 220.814 C 238.000 221.261,237.730 221.600,237.373 221.600 C 236.588 221.600,236.951 220.233,238.049 219.055 C 238.462 218.612,238.800 218.041,238.800 217.787 C 238.800 217.532,239.160 216.998,239.600 216.600 C 240.040 216.202,240.400 215.678,240.400 215.437 C 240.400 215.195,241.030 214.111,241.800 213.028 C 243.575 210.532,243.558 209.670,241.700 207.721 C 240.875 206.855,239.710 205.301,239.111 204.266 L 238.022 202.385 228.737 202.493 L 219.453 202.600 218.626 205.121 C 217.572 208.338,216.080 210.165,213.474 211.431 C 211.028 212.618,206.677 213.020,205.797 212.139 C 205.500 211.843,205.092 211.600,204.890 211.600 C 203.256 211.600,200.604 209.152,199.150 206.302 C 198.325 204.686,198.323 204.600,198.881 198.000 L 199.000 196.600 194.400 194.328 C 189.947 192.129,189.200 191.818,189.200 192.162 M203.800 192.623 C 203.140 192.931,202.150 193.093,201.600 192.985 C 200.709 192.810,200.682 192.838,201.350 193.242 C 202.119 193.707,204.987 193.068,205.444 192.329 C 205.725 191.874,205.213 191.966,203.800 192.623 M213.081 192.855 C 215.004 193.789,216.614 195.279,217.456 196.909 C 218.303 198.545,219.154 198.696,225.800 198.386 L 231.800 198.107 226.200 198.083 C 223.120 198.070,220.230 198.046,219.777 198.029 C 219.275 198.011,218.457 197.295,217.681 196.194 C 216.392 194.365,213.162 191.983,212.022 192.020 C 211.680 192.031,212.156 192.407,213.081 192.855 M226.832 212.140 C 225.586 214.468,227.725 216.834,229.892 215.526 C 231.123 214.783,231.600 212.764,230.778 211.774 C 229.973 210.804,227.420 211.041,226.832 212.140 M230.321 213.050 C 230.603 215.022,227.840 215.697,227.358 213.775 C 227.023 212.442,227.493 211.937,228.938 212.077 C 229.871 212.168,230.232 212.421,230.321 213.050 M282.248 282.382 C 282.368 282.502,282.895 282.608,283.418 282.618 C 283.942 282.628,284.272 282.538,284.152 282.418 C 284.032 282.298,283.505 282.192,282.982 282.182 C 282.458 282.172,282.128 282.262,282.248 282.382 M297.800 284.400 C 298.996 284.914,299.995 284.914,299.200 284.400 C 298.870 284.187,298.240 284.022,297.800 284.034 L 297.000 284.056 297.800 284.400 M288.782 286.034 C 288.128 287.256,288.579 287.396,289.355 286.212 C 289.720 285.656,289.841 285.200,289.623 285.200 C 289.406 285.200,289.027 285.575,288.782 286.034 M299.606 286.276 C 299.603 286.758,299.780 287.264,300.000 287.400 C 300.509 287.715,300.509 286.788,300.000 286.000 C 299.685 285.512,299.611 285.564,299.606 286.276 M291.067 287.867 C 290.640 288.293,290.759 289.600,291.224 289.600 C 291.457 289.600,291.537 289.778,291.403 289.995 C 291.106 290.476,292.276 290.086,293.389 289.334 C 294.040 288.893,294.063 288.800,293.522 288.800 C 293.162 288.800,292.796 289.012,292.709 289.272 C 292.619 289.544,292.254 289.630,291.848 289.474 C 291.361 289.287,291.223 288.957,291.399 288.402 C 291.660 287.582,291.541 287.392,291.067 287.867 M276.957 289.749 C 277.640 290.492,278.277 291.030,278.371 290.945 C 278.577 290.760,276.363 288.400,275.982 288.400 C 275.834 288.400,276.273 289.007,276.957 289.749 M285.112 290.865 C 284.867 291.599,286.800 292.561,287.368 291.988 C 287.678 291.675,287.615 291.623,287.142 291.803 C 286.722 291.963,286.266 291.743,285.884 291.199 C 285.469 290.606,285.232 290.504,285.112 290.865 M279.920 292.080 C 280.293 292.453,280.507 292.453,280.880 292.080 C 281.253 291.707,281.147 291.600,280.400 291.600 C 279.653 291.600,279.547 291.707,279.920 292.080 " stroke="none" fill="#4049e8" fill-rule="evenodd"></path><path id="path4" d="M276.114 166.600 C 276.117 167.700,276.195 168.103,276.287 167.495 C 276.379 166.886,276.377 165.986,276.282 165.495 C 276.187 165.003,276.111 165.500,276.114 166.600 M242.833 165.747 C 242.925 165.828,243.720 166.004,244.600 166.138 C 245.715 166.307,245.958 166.271,245.400 166.019 C 244.632 165.671,242.490 165.444,242.833 165.747 M251.905 167.083 C 252.402 167.179,253.122 167.175,253.505 167.075 C 253.887 166.975,253.480 166.896,252.600 166.901 C 251.720 166.905,251.407 166.987,251.905 167.083 M232.105 170.687 C 232.714 170.779,233.614 170.777,234.105 170.682 C 234.597 170.587,234.100 170.511,233.000 170.514 C 231.900 170.517,231.497 170.595,232.105 170.687 M274.200 171.853 C 271.182 175.466,270.864 175.666,268.584 175.381 C 267.109 175.196,266.406 175.266,266.189 175.618 C 265.960 175.988,266.147 176.050,266.916 175.857 C 267.872 175.617,268.792 176.116,268.102 176.500 C 267.936 176.593,268.070 176.585,268.400 176.483 C 268.730 176.381,269.432 176.204,269.960 176.090 C 271.014 175.864,274.939 172.216,275.330 171.100 C 275.664 170.146,275.578 170.203,274.200 171.853 M182.608 173.680 C 180.165 176.320,179.962 176.671,180.189 177.880 C 180.340 178.689,180.274 179.200,180.018 179.200 C 179.788 179.200,179.597 179.605,179.594 180.100 C 179.580 182.111,178.179 182.488,177.392 180.692 C 176.977 179.747,168.374 179.344,166.118 180.163 C 165.376 180.433,165.194 180.314,164.966 179.409 C 164.766 178.610,164.504 178.384,163.948 178.529 C 162.558 178.893,162.980 176.609,164.500 175.540 C 166.157 174.376,166.956 173.600,166.501 173.600 C 165.545 173.600,162.601 176.750,161.742 178.692 C 156.791 189.888,171.066 198.871,179.512 189.874 C 181.583 187.668,179.357 186.942,196.800 195.518 C 198.899 196.550,198.995 196.664,198.881 198.000 C 198.323 204.600,198.325 204.686,199.150 206.302 C 200.604 209.152,203.256 211.600,204.890 211.600 C 205.092 211.600,205.500 211.843,205.797 212.139 C 206.677 213.020,211.028 212.618,213.474 211.431 C 216.080 210.165,217.572 208.338,218.626 205.121 L 219.453 202.600 228.737 202.493 L 238.022 202.385 239.111 204.266 C 239.710 205.301,240.875 206.855,241.700 207.721 C 243.558 209.670,243.575 210.532,241.800 213.028 C 241.030 214.111,240.400 215.195,240.400 215.437 C 240.400 215.678,240.040 216.202,239.600 216.600 C 239.160 216.998,238.800 217.532,238.800 217.787 C 238.800 218.041,238.462 218.612,238.049 219.055 C 236.951 220.233,236.588 221.600,237.373 221.600 C 237.730 221.600,238.000 221.261,238.000 220.814 C 238.000 219.688,239.438 218.982,239.932 219.865 C 240.375 220.656,245.430 214.213,245.851 212.322 C 246.128 211.079,247.100 210.791,249.197 211.331 C 250.070 211.556,251.044 211.540,251.797 211.288 C 252.458 211.066,253.874 210.641,254.941 210.343 C 265.934 207.273,265.212 190.944,253.911 187.008 C 247.609 184.812,238.400 190.217,238.400 196.110 C 238.400 198.278,238.124 198.343,228.600 198.415 C 223.760 198.451,219.487 198.463,219.105 198.441 C 218.723 198.418,217.963 197.692,217.417 196.826 C 214.628 192.409,208.960 190.642,204.494 192.800 C 202.241 193.889,202.959 194.112,192.928 189.200 C 187.987 186.780,183.790 184.800,183.601 184.800 C 182.835 184.800,181.599 182.621,181.586 181.246 C 181.578 180.451,181.314 179.350,181.000 178.800 C 180.286 177.552,180.264 177.003,180.900 176.319 C 182.388 174.718,185.628 170.800,185.465 170.800 C 185.360 170.800,184.075 172.096,182.608 173.680 M256.730 172.300 C 257.161 172.905,257.928 173.760,258.434 174.200 C 258.940 174.640,258.651 174.145,257.792 173.100 C 256.073 171.008,255.503 170.579,256.730 172.300 M173.400 173.091 C 174.060 173.185,174.771 173.428,174.980 173.631 C 175.598 174.231,177.459 174.052,178.051 173.336 C 178.552 172.729,178.523 172.719,177.716 173.222 C 177.000 173.668,176.578 173.680,175.488 173.286 C 174.748 173.019,173.706 172.827,173.172 172.860 C 172.376 172.909,172.418 172.951,173.400 173.091 M204.413 173.622 C 204.406 173.745,204.850 174.455,205.400 175.200 C 205.950 175.945,206.400 176.350,206.400 176.100 C 206.400 175.647,204.437 173.199,204.413 173.622 M145.280 175.211 C 143.331 177.027,143.866 179.581,146.461 180.859 C 148.518 181.871,151.200 180.131,151.200 177.785 C 151.200 174.955,147.351 173.282,145.280 175.211 M149.919 175.900 C 151.515 178.168,150.281 180.419,147.876 179.625 C 147.103 179.370,146.370 178.900,146.248 178.581 C 146.125 178.261,145.659 178.000,145.213 178.000 C 144.180 178.000,144.184 177.427,145.227 175.962 C 146.390 174.329,148.792 174.297,149.919 175.900 M198.667 175.067 C 198.520 175.213,198.400 176.185,198.400 177.225 C 198.400 181.862,204.818 183.167,206.327 178.838 C 206.915 177.150,206.549 177.269,205.826 179.000 C 205.501 179.778,204.955 180.400,204.597 180.400 C 204.243 180.400,204.064 180.220,204.200 180.000 C 204.349 179.759,203.815 179.600,202.856 179.600 C 200.661 179.600,200.000 179.271,200.000 178.177 C 200.000 177.662,199.703 177.074,199.340 176.870 C 198.914 176.632,198.759 176.200,198.903 175.651 C 199.139 174.747,199.095 174.638,198.667 175.067 M248.605 177.049 C 247.247 179.120,249.671 181.232,251.803 179.835 C 253.628 178.639,252.732 176.000,250.502 176.000 C 249.638 176.000,249.096 176.300,248.605 177.049 M262.483 176.460 C 262.767 176.640,263.990 176.776,265.200 176.762 C 267.858 176.732,267.442 176.521,264.283 176.296 C 262.989 176.204,262.194 176.276,262.483 176.460 M251.000 176.685 C 249.889 176.952,249.266 177.600,250.120 177.600 C 250.969 177.600,251.013 178.343,250.183 178.662 C 249.318 178.994,249.062 178.606,249.360 177.419 C 249.560 176.621,249.852 176.410,250.708 176.446 C 251.538 176.482,251.608 176.539,251.000 176.685 M224.389 179.484 C 222.640 180.693,222.400 181.110,222.400 182.942 C 222.400 187.480,228.551 188.637,230.516 184.468 C 232.214 180.864,227.702 177.193,224.389 179.484 M225.435 182.698 C 224.998 183.135,224.699 182.440,225.012 181.717 C 225.310 181.032,225.332 181.033,225.497 181.731 C 225.593 182.134,225.565 182.569,225.435 182.698 M227.400 212.400 C 226.934 213.154,227.547 214.693,228.403 214.917 C 229.431 215.186,230.480 214.165,230.321 213.050 C 230.186 212.101,227.899 211.592,227.400 212.400 M277.665 282.642 C 277.172 282.888,276.534 283.412,276.245 283.806 C 275.957 284.200,275.514 284.394,275.261 284.238 C 274.963 284.054,274.802 284.280,274.806 284.876 C 274.811 285.619,274.888 285.683,275.200 285.200 C 275.484 284.761,275.589 285.059,275.594 286.312 C 275.599 287.764,275.813 288.211,277.000 289.254 C 277.770 289.930,278.400 290.734,278.400 291.041 C 278.400 291.878,284.731 291.844,285.053 291.006 C 285.242 290.514,285.395 290.548,285.941 291.204 C 287.387 292.941,289.752 290.450,288.749 288.247 C 287.817 286.202,289.834 284.154,291.181 285.777 C 291.466 286.120,291.585 287.071,291.475 288.128 C 291.309 289.714,291.370 289.881,292.045 289.704 C 292.460 289.596,292.800 289.348,292.800 289.153 C 292.800 288.959,293.070 288.800,293.400 288.800 C 293.936 288.800,294.199 287.881,294.042 286.553 C 293.957 285.835,295.079 285.128,296.078 285.269 C 296.823 285.375,297.024 285.684,297.123 286.880 C 297.216 288.003,297.458 288.421,298.123 288.612 C 298.605 288.750,299.316 288.952,299.702 289.059 C 300.406 289.256,300.535 288.001,299.877 287.344 C 299.725 287.191,299.600 286.571,299.600 285.965 C 299.600 285.064,299.379 284.815,298.388 284.597 C 297.722 284.451,296.667 283.787,296.045 283.121 C 295.083 282.091,294.790 281.977,294.083 282.355 C 293.029 282.920,291.327 282.930,290.984 282.374 C 290.695 281.906,288.334 281.998,287.976 282.491 C 287.612 282.994,283.292 282.839,282.000 282.276 C 281.154 281.908,278.728 282.113,277.665 282.642 M282.170 286.367 C 282.921 287.197,282.919 287.222,281.978 288.223 C 280.215 290.100,277.561 289.005,278.153 286.645 C 278.644 284.689,280.534 284.559,282.170 286.367 " stroke="none" fill="#664cf7" fill-rule="evenodd"></path></g></svg>