<?xml version="1.0" standalone="no"?>
<!DOCTYPE svg PUBLIC "-//W3C//DTD SVG 20010904//EN"
 "http://www.w3.org/TR/2001/REC-SVG-20010904/DTD/svg10.dtd">
<svg version="1.0" xmlns="http://www.w3.org/2000/svg"
 width="500.000000pt" height="500.000000pt" viewBox="0 0 500.000000 500.000000"
 preserveAspectRatio="xMidYMid meet">

<g transform="translate(0.000000,500.000000) scale(0.100000,-0.100000)"
fill="#000000" stroke="none">
<path d="M1076 2999 c-9 -47 -7 -174 3 -202 6 -16 42 -44 98 -78 48 -29 101
-61 116 -72 l28 -19 -93 -57 c-51 -32 -107 -66 -125 -76 l-32 -19 -118 72
c-65 39 -121 68 -126 63 -4 -4 -6 -70 -5 -145 l3 -138 123 -75 122 -74 123 75
c68 42 128 76 132 76 4 0 63 -34 131 -76 l123 -75 126 76 125 77 0 144 c0 79
-3 144 -6 144 -4 0 -58 -32 -121 -71 -72 -44 -121 -68 -131 -64 -22 8 -232
136 -236 144 -2 3 52 40 120 81 l124 75 0 124 c0 144 15 139 -140 46 -60 -36
-111 -65 -114 -65 -3 0 -57 32 -120 70 -62 39 -116 70 -118 70 -3 0 -8 -14
-12 -31z"/>
</g>
</svg>
