<?xml version="1.0" encoding="UTF-8"?>
<!DOCTYPE svg PUBLIC "-//W3C//DTD SVG 1.1//EN" "http://www.w3.org/Graphics/SVG/1.1/DTD/svg11.dtd">
<svg xmlns="http://www.w3.org/2000/svg" version="1.1" width="100px" height="100px" style="shape-rendering:geometricPrecision; text-rendering:geometricPrecision; image-rendering:optimizeQuality; fill-rule:evenodd; clip-rule:evenodd" xmlns:xlink="http://www.w3.org/1999/xlink">
<g><path style="opacity:1" fill="#666666" d="M 42.5,46.5 C 42.5,45.1667 41.8333,44.5 40.5,44.5C 38.8362,42.3209 39.1695,40.4875 41.5,39C 32.1726,38.5002 22.8393,38.3335 13.5,38.5C 12.8333,61.1667 12.1667,61.1667 11.5,38.5C 9.83333,38.5 8.16667,38.5 6.5,38.5C 6.5,33.1667 6.5,27.8333 6.5,22.5C 12.5092,22.6662 18.5092,22.4995 24.5,22C 19.3564,14.1157 21.3564,8.94902 30.5,6.5C 33.7033,6.76832 36.37,8.10165 38.5,10.5C 44.8365,4.6963 50.3365,5.36297 55,12.5C 56.0274,16.1799 55.1941,19.3466 52.5,22C 58.4908,22.4995 64.4908,22.6662 70.5,22.5C 70.5,27.8333 70.5,33.1667 70.5,38.5C 68.8333,38.5 67.1667,38.5 65.5,38.5C 65.169,46.5277 65.5023,54.5277 66.5,62.5C 66.9168,59.9298 67.0834,57.2631 67,54.5C 68.7998,52.683 70.9664,51.5163 73.5,51C 77.5,50.3333 81.5,50.3333 85.5,51C 88.0336,51.5163 90.2002,52.683 92,54.5C 91.5001,64.1724 91.6668,73.8391 92.5,83.5C 92.0233,84.4776 91.3567,85.3109 90.5,86C 85.7226,87.9803 80.7226,88.9803 75.5,89C 68.0583,93.2572 60.3916,93.5905 52.5,90C 51.6433,89.3109 50.9767,88.4776 50.5,87.5C 50.8333,84.1667 51.1667,80.8333 51.5,77.5C 38.1833,76.5008 24.85,76.1675 11.5,76.5C 11.1826,73.4281 11.5159,70.4281 12.5,67.5C 13.4742,69.7427 13.8076,72.076 13.5,74.5C 26.1842,74.8324 38.8508,74.4991 51.5,73.5C 51.1667,71.5 50.8333,69.5 50.5,67.5C 53.9236,63.6886 58.2569,62.022 63.5,62.5C 63.5,54.5 63.5,46.5 63.5,38.5C 56.4921,38.3337 49.4921,38.5004 42.5,39C 46.0439,40.2535 46.3772,42.0868 43.5,44.5C 44.067,48.3237 46.067,50.9904 49.5,52.5C 51.2828,51.6518 51.7828,50.3185 51,48.5C 50.3645,47.0337 49.5312,45.7003 48.5,44.5C 49.325,43.6143 50.325,43.281 51.5,43.5C 52.2155,47.8451 53.5489,51.8451 55.5,55.5C 52.9105,55.6038 50.5771,54.9371 48.5,53.5C 46.8653,54.0463 45.1986,54.3796 43.5,54.5C 43.8064,51.6146 43.4731,48.9479 42.5,46.5 Z M 27.5,8.5 C 36.4634,8.82898 39.7967,13.4956 37.5,22.5C 32.1508,23.5386 27.6508,22.2053 24,18.5C 23.3333,16.5 23.3333,14.5 24,12.5C 25.3756,11.2949 26.5423,9.9616 27.5,8.5 Z M 43.5,8.5 C 50.6545,8.15268 53.8212,11.486 53,18.5C 49.3492,22.2053 44.8492,23.5386 39.5,22.5C 38.4913,17.0013 39.8246,12.3347 43.5,8.5 Z M 8.5,24.5 C 15.8333,24.5 23.1667,24.5 30.5,24.5C 30.5,28.5 30.5,32.5 30.5,36.5C 23.1667,36.5 15.8333,36.5 8.5,36.5C 8.5,32.5 8.5,28.5 8.5,24.5 Z M 46.5,24.5 C 53.8333,24.5 61.1667,24.5 68.5,24.5C 68.5,28.5 68.5,32.5 68.5,36.5C 61.1667,36.5 53.8333,36.5 46.5,36.5C 46.5,32.5 46.5,28.5 46.5,24.5 Z M 68.5,58.5 C 75.5012,61.1113 82.5012,61.1113 89.5,58.5C 89.8333,58.8333 90.1667,59.1667 90.5,59.5C 84.1184,62.8647 77.4518,63.3647 70.5,61C 69.244,60.5831 68.5774,59.7498 68.5,58.5 Z M 88.5,62.5 C 89.3764,62.3691 90.0431,62.7025 90.5,63.5C 89.0878,64.8064 87.4211,65.6397 85.5,66C 81.6384,66.9133 77.9717,66.5799 74.5,65C 79.4576,64.9709 84.1243,64.1376 88.5,62.5 Z M 88.5,66.5 C 89.3764,66.3691 90.0431,66.7025 90.5,67.5C 85.8534,70.4661 80.8534,71.1328 75.5,69.5C 80.0805,68.9595 84.4138,67.9595 88.5,66.5 Z M 52.5,70.5 C 59.5012,73.1113 66.5012,73.1113 73.5,70.5C 73.8333,70.8333 74.1667,71.1667 74.5,71.5C 68.1184,74.8647 61.4518,75.3647 54.5,73C 53.244,72.5831 52.5774,71.7498 52.5,70.5 Z M 88.5,70.5 C 89.3764,70.3691 90.0431,70.7025 90.5,71.5C 85.8534,74.4661 80.8534,75.1328 75.5,73.5C 80.0805,72.9595 84.4138,71.9595 88.5,70.5 Z M 52.5,74.5 C 59.5012,77.1113 66.5012,77.1113 73.5,74.5C 73.8333,74.8333 74.1667,75.1667 74.5,75.5C 68.1184,78.8647 61.4518,79.3647 54.5,77C 53.244,76.5831 52.5774,75.7498 52.5,74.5 Z M 88.5,74.5 C 89.3764,74.3691 90.0431,74.7025 90.5,75.5C 85.8534,78.4661 80.8534,79.1328 75.5,77.5C 80.0805,76.9595 84.4138,75.9595 88.5,74.5 Z M 52.5,78.5 C 59.5012,81.1113 66.5012,81.1113 73.5,78.5C 73.8333,78.8333 74.1667,79.1667 74.5,79.5C 68.1184,82.8647 61.4518,83.3647 54.5,81C 53.244,80.5831 52.5774,79.7498 52.5,78.5 Z M 88.5,78.5 C 89.3764,78.3691 90.0431,78.7025 90.5,79.5C 85.8534,82.4661 80.8534,83.1328 75.5,81.5C 80.0805,80.9595 84.4138,79.9595 88.5,78.5 Z M 52.5,82.5 C 59.5012,85.1113 66.5012,85.1113 73.5,82.5C 73.8333,82.8333 74.1667,83.1667 74.5,83.5C 68.1184,86.8647 61.4518,87.3647 54.5,85C 53.244,84.5831 52.5774,83.7498 52.5,82.5 Z M 88.5,82.5 C 89.3764,82.3691 90.0431,82.7025 90.5,83.5C 85.8534,86.4661 80.8534,87.1328 75.5,85.5C 80.0805,84.9595 84.4138,83.9595 88.5,82.5 Z M 52.5,86.5 C 59.5012,89.1113 66.5012,89.1113 73.5,86.5C 73.8333,86.8333 74.1667,87.1667 74.5,87.5C 68.1184,90.8647 61.4518,91.3647 54.5,89C 53.244,88.5831 52.5774,87.7498 52.5,86.5 Z"/></g>
<g><path style="opacity:1" fill="#d5d6d5" d="M 32.5,24.5 C 36.5,24.5 40.5,24.5 44.5,24.5C 44.5,28.5 44.5,32.5 44.5,36.5C 40.5,36.5 36.5,36.5 32.5,36.5C 32.5,32.5 32.5,28.5 32.5,24.5 Z"/></g>
<g><path style="opacity:1" fill="#656565" d="M 40.5,44.5 C 39.6448,46.7868 39.4782,49.1201 40,51.5C 38.6439,52.3802 37.1439,52.7135 35.5,52.5C 35.1667,52.5 34.8333,52.5 34.5,52.5C 35.0555,48.9926 33.3888,46.6592 29.5,45.5C 26.4744,45.9777 25.4744,47.4777 26.5,50C 25.2805,53.3452 23.1138,54.1786 20,52.5C 19.0181,51.2411 18.6848,49.9078 19,48.5C 20.8259,46.9262 22.9925,46.0929 25.5,46C 27.0368,44.8904 27.7035,43.3904 27.5,41.5C 28.8333,41.5 30.1667,41.5 31.5,41.5C 32.7393,48.0959 35.7393,49.0959 40.5,44.5 Z"/></g>
<g><path style="opacity:1" fill="#676767" d="M 35.5,41.5 C 38.1368,43.1538 37.8034,43.6538 34.5,43C 35.056,42.6174 35.3893,42.1174 35.5,41.5 Z"/></g>
<g><path style="opacity:1" fill="#626262" d="M 46.5,42.5 C 47.525,42.8966 47.6917,43.5632 47,44.5C 46.5357,43.9056 46.369,43.2389 46.5,42.5 Z"/></g>
<g><path style="opacity:1" fill="#616161" d="M 42.5,46.5 C 42.631,47.2389 42.4643,47.9056 42,48.5C 41.3083,47.5632 41.475,46.8966 42.5,46.5 Z"/></g>
<g><path style="opacity:1" fill="#626262" d="M 47.5,47.5 C 50.1368,49.1538 49.8034,49.6538 46.5,49C 47.056,48.6174 47.3893,48.1174 47.5,47.5 Z"/></g>
<g><path style="opacity:1" fill="#626262" d="M 29.5,49.5 C 31.337,49.6395 31.6704,50.3061 30.5,51.5C 29.7025,51.0431 29.3691,50.3764 29.5,49.5 Z"/></g>
<g><path style="opacity:1" fill="#cdcdcd" d="M 72.5,52.5 C 77.1785,52.3342 81.8452,52.5008 86.5,53C 91.5573,55.729 90.8907,57.3956 84.5,58C 80.5,58.6667 76.5,58.6667 72.5,58C 70.9984,57.4169 69.6651,56.5836 68.5,55.5C 69.9014,54.4793 71.2347,53.4793 72.5,52.5 Z"/></g>
<g><path style="opacity:1" fill="#5c5d5c" d="M 23.5,56.5 C 23.8966,55.475 24.5632,55.3083 25.5,56C 24.9056,56.4643 24.2389,56.631 23.5,56.5 Z"/></g>
<g><path style="opacity:1" fill="#5b5b5b" d="M 37.5,54.5 C 39.7602,55.2376 39.9269,56.2376 38,57.5C 36.2716,56.6477 36.105,55.6477 37.5,54.5 Z"/></g>
<g><path style="opacity:1" fill="#545554" d="M 48.5,56.5 C 48.8966,55.475 49.5632,55.3083 50.5,56C 49.9056,56.4643 49.2389,56.631 48.5,56.5 Z"/></g>
<g><path style="opacity:1" fill="#5b5b5b" d="M 34.5,52.5 C 34.8333,52.5 35.1667,52.5 35.5,52.5C 34.7101,53.7942 33.7101,54.9609 32.5,56C 38.0477,60.3633 43.7143,61.1967 49.5,58.5C 52.4273,59.1883 53.0939,60.855 51.5,63.5C 49.6396,64.2599 47.973,65.2599 46.5,66.5C 48.0337,64.6579 47.7003,63.3246 45.5,62.5C 44.7492,63.376 44.2492,64.376 44,65.5C 43.0411,63.3423 41.5411,63.009 39.5,64.5C 37.4138,62.5472 35.2471,60.5472 33,58.5C 31.3333,59.8333 29.6667,59.8333 28,58.5C 27.4926,57.0039 27.9926,55.8373 29.5,55C 31.4517,54.6339 33.1184,53.8005 34.5,52.5 Z"/></g>
<g><path style="opacity:1" fill="#5c5c5c" d="M 42.5,56.5 C 44.337,56.6395 44.6704,57.3061 43.5,58.5C 42.7025,58.0431 42.3691,57.3764 42.5,56.5 Z"/></g>
<g><path style="opacity:1" fill="#656665" d="M 11.5,59.5 C 12.5862,59.62 13.2528,60.2867 13.5,61.5C 13.1667,62.1667 12.8333,62.8333 12.5,63.5C 11.5713,62.3112 11.238,60.9778 11.5,59.5 Z"/></g>
<g><path style="opacity:1" fill="#cdcdcd" d="M 56.5,64.5 C 61.1785,64.3342 65.8452,64.5008 70.5,65C 75.5573,67.729 74.8907,69.3956 68.5,70C 64.5,70.6667 60.5,70.6667 56.5,70C 54.9984,69.4169 53.6651,68.5836 52.5,67.5C 53.9014,66.4793 55.2347,65.4793 56.5,64.5 Z"/></g>
<g><path style="opacity:1" fill="#545554" d="M 46.5,66.5 C 48.0617,70.4383 46.7284,72.2717 42.5,72C 41.1378,68.4993 42.4711,66.666 46.5,66.5 Z"/></g>
</svg>
