<?xml version="1.0" encoding="UTF-8"?>
<!DOCTYPE svg PUBLIC "-//W3C//DTD SVG 1.1//EN" "http://www.w3.org/Graphics/SVG/1.1/DTD/svg11.dtd">
<svg xmlns="http://www.w3.org/2000/svg" version="1.1" width="100px" height="100px" style="shape-rendering:geometricPrecision; text-rendering:geometricPrecision; image-rendering:optimizeQuality; fill-rule:evenodd; clip-rule:evenodd" xmlns:xlink="http://www.w3.org/1999/xlink">
<g><path style="opacity:0.792" fill="#656565" d="M 22.5,5.5 C 29.2718,11.1461 35.2718,17.6461 40.5,25C 64.604,21.7712 75.7707,32.2712 74,56.5C 72.3531,62.1348 69.1864,66.6348 64.5,70C 65.624,70.2492 66.624,70.7492 67.5,71.5C 65.5767,72.3078 63.5767,72.8078 61.5,73C 66.0102,78.3418 70.6769,83.5084 75.5,88.5C 80.3231,83.5084 84.9898,78.3418 89.5,73C 87.1902,72.5034 84.8568,72.3367 82.5,72.5C 82.1826,69.4281 82.5159,66.4281 83.5,63.5C 84.4742,65.7427 84.8076,68.076 84.5,70.5C 88.1817,70.3347 91.8484,70.5014 95.5,71C 88.619,78.3768 81.9523,85.8768 75.5,93.5C 69.4894,87.3212 63.8228,80.8212 58.5,74C 38.6988,77.3562 27.0321,69.1895 23.5,49.5C 24.1815,40.9651 27.8481,34.1317 34.5,29C 33.376,28.7508 32.376,28.2508 31.5,27.5C 33.4233,26.6922 35.4233,26.1922 37.5,26C 32.9898,20.6582 28.3231,15.4916 23.5,10.5C 18.6769,15.4916 14.0102,20.6582 9.5,26C 11.8098,26.4966 14.1432,26.6633 16.5,26.5C 16.8174,29.5719 16.4841,32.5719 15.5,35.5C 14.5258,33.2573 14.1924,30.924 14.5,28.5C 10.8183,28.6653 7.15159,28.4986 3.5,28C 10.4197,20.9204 16.753,13.4204 22.5,5.5 Z M 58.5,36.5 C 56.5,36.5 54.5,36.5 52.5,36.5C 52.1667,36.5 51.8333,36.5 51.5,36.5C 47.8333,36.5 44.1667,36.5 40.5,36.5C 42.9109,34.1403 45.9109,33.1403 49.5,33.5C 53.0891,33.1403 56.0891,34.1403 58.5,36.5 Z M 62.5,40.5 C 64.8597,42.9109 65.8597,45.9109 65.5,49.5C 65.8597,53.0891 64.8597,56.0891 62.5,58.5C 62.5,54.8333 62.5,51.1667 62.5,47.5C 62.5,47.1667 62.5,46.8333 62.5,46.5C 62.5,44.5 62.5,42.5 62.5,40.5 Z M 38.5,61.5 C 43.1667,61.5 47.8333,61.5 52.5,61.5C 53.1667,61.5 53.8333,61.5 54.5,61.5C 56.4147,61.2155 58.0813,61.5489 59.5,62.5C 52.2111,66.7348 45.2111,66.4015 38.5,61.5 Z"/></g>
<g><path style="opacity:1" fill="#cecece" d="M 43.5,26.5 C 63.2068,25.7079 72.7068,35.0412 72,54.5C 67.335,68.0871 57.835,73.9204 43.5,72C 28.407,65.311 23.5736,54.1444 29,38.5C 32.5405,32.78 37.3739,28.78 43.5,26.5 Z M 58.5,36.5 C 56.5,36.5 54.5,36.5 52.5,36.5C 52.1667,36.5 51.8333,36.5 51.5,36.5C 47.8333,36.5 44.1667,36.5 40.5,36.5C 42.9109,34.1403 45.9109,33.1403 49.5,33.5C 53.0891,33.1403 56.0891,34.1403 58.5,36.5 Z M 62.5,40.5 C 64.8597,42.9109 65.8597,45.9109 65.5,49.5C 65.8597,53.0891 64.8597,56.0891 62.5,58.5C 62.5,54.8333 62.5,51.1667 62.5,47.5C 62.5,47.1667 62.5,46.8333 62.5,46.5C 62.5,44.5 62.5,42.5 62.5,40.5 Z M 38.5,61.5 C 43.1667,61.5 47.8333,61.5 52.5,61.5C 53.1667,61.5 53.8333,61.5 54.5,61.5C 56.4147,61.2155 58.0813,61.5489 59.5,62.5C 52.2111,66.7348 45.2111,66.4015 38.5,61.5 Z"/></g>
<g><path style="opacity:0.777" fill="#6a6a6a" d="M 44.5,30.5 C 60.5414,30.0428 68.3748,37.7094 68,53.5C 63.323,66.0887 54.4896,70.5887 41.5,67C 31.8109,60.9329 28.6442,52.4329 32,41.5C 35.1476,36.5094 39.3143,32.8427 44.5,30.5 Z M 58.5,36.5 C 56.5,36.5 54.5,36.5 52.5,36.5C 52.1667,36.5 51.8333,36.5 51.5,36.5C 47.8333,36.5 44.1667,36.5 40.5,36.5C 42.9109,34.1403 45.9109,33.1403 49.5,33.5C 53.0891,33.1403 56.0891,34.1403 58.5,36.5 Z M 62.5,40.5 C 64.8597,42.9109 65.8597,45.9109 65.5,49.5C 65.8597,53.0891 64.8597,56.0891 62.5,58.5C 62.5,54.8333 62.5,51.1667 62.5,47.5C 62.5,47.1667 62.5,46.8333 62.5,46.5C 62.5,44.5 62.5,42.5 62.5,40.5 Z M 38.5,61.5 C 43.1667,61.5 47.8333,61.5 52.5,61.5C 53.1667,61.5 53.8333,61.5 54.5,61.5C 56.4147,61.2155 58.0813,61.5489 59.5,62.5C 52.2111,66.7348 45.2111,66.4015 38.5,61.5 Z"/></g>
<g><path style="opacity:0.004" fill="#0b0b0a" d="M 40.5,36.5 C 44.1667,36.5 47.8333,36.5 51.5,36.5C 51.0472,37.4584 50.3805,38.2917 49.5,39C 50.4506,39.7175 50.6172,40.5509 50,41.5C 48.6439,42.3802 47.1439,42.7135 45.5,42.5C 47.4674,45.9639 46.1341,47.9639 41.5,48.5C 41.2384,51.9209 42.5717,52.9209 45.5,51.5C 46.8448,52.3467 47.8448,53.5134 48.5,55C 50.5847,55.5288 52.418,55.0288 54,53.5C 54.5,53.8333 55,54.1667 55.5,54.5C 54.6533,55.8448 53.4866,56.8448 52,57.5C 51.4209,58.9285 51.5876,60.2618 52.5,61.5C 47.8333,61.5 43.1667,61.5 38.5,61.5C 37.1154,60.4264 35.9487,59.0931 35,57.5C 34.3333,52.1667 34.3333,46.8333 35,41.5C 36.0757,38.921 37.909,37.2543 40.5,36.5 Z"/></g>
<g><path style="opacity:0.004" fill="#090403" d="M 52.5,36.5 C 54.5,36.5 56.5,36.5 58.5,36.5C 60.8333,36.8333 62.1667,38.1667 62.5,40.5C 62.5,42.5 62.5,44.5 62.5,46.5C 59.7059,45.4154 59.0392,43.5821 60.5,41C 57.526,38.982 56.526,39.6486 57.5,43C 56.3333,43.5 55.5,44.3333 55,45.5C 53.0131,43.3209 53.1798,41.4876 55.5,40C 54.635,38.6412 53.635,37.4745 52.5,36.5 Z"/></g>
<g><path style="opacity:1" fill="#656665" d="M 14.5,39.5 C 15.5862,39.62 16.2528,40.2867 16.5,41.5C 16.1667,42.1667 15.8333,42.8333 15.5,43.5C 14.5713,42.3112 14.238,40.9778 14.5,39.5 Z"/></g>
<g><path style="opacity:0.995" fill="#696361" d="M 45.5,42.5 C 41.0193,41.9634 39.686,43.6301 41.5,47.5C 39.8008,47.6602 38.1341,47.4935 36.5,47C 35.1667,45.6667 35.1667,44.3333 36.5,43C 39.9008,43.266 41.5674,41.766 41.5,38.5C 42.5,38.5 43.5,38.5 44.5,38.5C 44.4326,39.9587 44.7659,41.2921 45.5,42.5 Z"/></g>
<g><path style="opacity:1" fill="#656665" d="M 82.5,43.5 C 83.7479,44.3339 84.4146,45.6672 84.5,47.5C 84.1667,48.8333 83.8333,50.1667 83.5,51.5C 82.52,48.9135 82.1866,46.2469 82.5,43.5 Z"/></g>
<g><path style="opacity:1" fill="#656665" d="M 14.5,47.5 C 15.7479,48.3339 16.4146,49.6672 16.5,51.5C 16.1667,52.8333 15.8333,54.1667 15.5,55.5C 14.52,52.9135 14.1866,50.2469 14.5,47.5 Z"/></g>
<g><path style="opacity:0.005" fill="#040602" d="M 62.5,47.5 C 62.5,51.1667 62.5,54.8333 62.5,58.5C 62.2624,60.4044 61.2624,61.7377 59.5,62.5C 58.0813,61.5489 56.4147,61.2155 54.5,61.5C 55.1481,59.9142 55.6481,58.2475 56,56.5C 57.7571,55.8811 58.9238,54.7144 59.5,53C 58.5862,51.5936 57.9195,50.0936 57.5,48.5C 59.5184,49.9326 61.1851,49.5992 62.5,47.5 Z"/></g>
<g><path style="opacity:0.95" fill="#5b5b5b" d="M 51.5,36.5 C 51.8333,36.5 52.1667,36.5 52.5,36.5C 53.635,37.4745 54.635,38.6412 55.5,40C 53.1798,41.4876 53.0131,43.3209 55,45.5C 55.5,44.3333 56.3333,43.5 57.5,43C 56.526,39.6486 57.526,38.982 60.5,41C 59.0392,43.5821 59.7059,45.4154 62.5,46.5C 62.5,46.8333 62.5,47.1667 62.5,47.5C 61.1851,49.5992 59.5184,49.9326 57.5,48.5C 57.9195,50.0936 58.5862,51.5936 59.5,53C 58.9238,54.7144 57.7571,55.8811 56,56.5C 55.6481,58.2475 55.1481,59.9142 54.5,61.5C 53.8333,61.5 53.1667,61.5 52.5,61.5C 51.5876,60.2618 51.4209,58.9285 52,57.5C 53.4866,56.8448 54.6533,55.8448 55.5,54.5C 55,54.1667 54.5,53.8333 54,53.5C 52.418,55.0288 50.5847,55.5288 48.5,55C 47.8448,53.5134 46.8448,52.3467 45.5,51.5C 42.5717,52.9209 41.2384,51.9209 41.5,48.5C 46.1341,47.9639 47.4674,45.9639 45.5,42.5C 47.1439,42.7135 48.6439,42.3802 50,41.5C 50.6172,40.5509 50.4506,39.7175 49.5,39C 50.3805,38.2917 51.0472,37.4584 51.5,36.5 Z"/></g>
<g><path style="opacity:0.005" fill="#101010" d="M 57.5,48.5 C 54.1691,53.1397 50.1691,53.473 45.5,49.5C 46.6554,48.0495 48.1554,47.0495 50,46.5C 50.3333,45.1667 50.6667,43.8333 51,42.5C 52.0569,44.2194 52.8903,46.0528 53.5,48C 55.0187,47.6692 56.352,47.8359 57.5,48.5 Z"/></g>
<g><path style="opacity:1" fill="#656665" d="M 82.5,55.5 C 83.5862,55.62 84.2528,56.2867 84.5,57.5C 84.1667,58.1667 83.8333,58.8333 83.5,59.5C 82.5713,58.3112 82.238,56.9778 82.5,55.5 Z"/></g>
</svg>
