<?xml version="1.0" encoding="UTF-8"?>
<!DOCTYPE svg PUBLIC "-//W3C//DTD SVG 1.1//EN" "http://www.w3.org/Graphics/SVG/1.1/DTD/svg11.dtd">
<svg xmlns="http://www.w3.org/2000/svg" version="1.1" width="100px" height="100px" style="shape-rendering:geometricPrecision; text-rendering:geometricPrecision; image-rendering:optimizeQuality; fill-rule:evenodd; clip-rule:evenodd" xmlns:xlink="http://www.w3.org/1999/xlink">
<g><path style="opacity:1" fill="#656665" d="M 42.5,6.5 C 45.0488,6.38742 47.3821,7.05408 49.5,8.5C 53.794,5.45144 57.294,6.11811 60,10.5C 60.6514,12.235 60.4847,13.9017 59.5,15.5C 63.7828,16.4922 68.1161,16.8256 72.5,16.5C 72.5,20.1667 72.5,23.8333 72.5,27.5C 71.1667,27.5 69.8333,27.5 68.5,27.5C 67.8333,38.1667 67.1667,38.1667 66.5,27.5C 55.1667,27.5 43.8333,27.5 32.5,27.5C 32.5,35.1667 32.5,42.8333 32.5,50.5C 43.8333,50.5 55.1667,50.5 66.5,50.5C 66.281,49.325 66.6143,48.325 67.5,47.5C 68.4519,49.0453 68.7852,50.712 68.5,52.5C 62.5,52.5 56.5,52.5 50.5,52.5C 50.5,54.1667 50.5,55.8333 50.5,57.5C 61.5,57.5 72.5,57.5 83.5,57.5C 83.5,59.8333 83.5,62.1667 83.5,64.5C 84.5,64.5 85.5,64.5 86.5,64.5C 86.5,65.5 86.5,66.5 86.5,67.5C 88.5,67.5 90.5,67.5 92.5,67.5C 92.5,75.8333 92.5,84.1667 92.5,92.5C 85.8333,92.5 79.1667,92.5 72.5,92.5C 72.1826,89.4281 72.5159,86.4281 73.5,83.5C 74.4742,85.7427 74.8076,88.076 74.5,90.5C 79.8333,90.5 85.1667,90.5 90.5,90.5C 90.5,83.5 90.5,76.5 90.5,69.5C 89.1667,69.5 87.8333,69.5 86.5,69.5C 86.5,71.8333 86.5,74.1667 86.5,76.5C 83.8333,76.5 81.1667,76.5 78.5,76.5C 78.5,74.1667 78.5,71.8333 78.5,69.5C 77.1667,69.5 75.8333,69.5 74.5,69.5C 74.8204,72.8984 74.487,76.2317 73.5,79.5C 72.5091,75.5546 72.1758,71.5546 72.5,67.5C 74.5,67.5 76.5,67.5 78.5,67.5C 78.5,66.5 78.5,65.5 78.5,64.5C 79.5,64.5 80.5,64.5 81.5,64.5C 81.5,62.8333 81.5,61.1667 81.5,59.5C 71.1667,59.5 60.8333,59.5 50.5,59.5C 50.5,61.1667 50.5,62.8333 50.5,64.5C 51.5,64.5 52.5,64.5 53.5,64.5C 53.5,65.5 53.5,66.5 53.5,67.5C 55.5,67.5 57.5,67.5 59.5,67.5C 59.5,75.8333 59.5,84.1667 59.5,92.5C 52.8333,92.5 46.1667,92.5 39.5,92.5C 39.2148,90.712 39.5481,89.0453 40.5,87.5C 41.3857,88.325 41.719,89.325 41.5,90.5C 46.8333,90.5 52.1667,90.5 57.5,90.5C 57.5,83.5 57.5,76.5 57.5,69.5C 56.1667,69.5 54.8333,69.5 53.5,69.5C 53.5,71.8333 53.5,74.1667 53.5,76.5C 50.8333,76.5 48.1667,76.5 45.5,76.5C 45.5,74.1667 45.5,71.8333 45.5,69.5C 44.1667,69.5 42.8333,69.5 41.5,69.5C 41.8266,74.2137 41.4933,78.8804 40.5,83.5C 39.5052,78.2079 39.1718,72.8746 39.5,67.5C 41.5,67.5 43.5,67.5 45.5,67.5C 45.5,66.5 45.5,65.5 45.5,64.5C 46.5,64.5 47.5,64.5 48.5,64.5C 48.5,62.8333 48.5,61.1667 48.5,59.5C 36.5,58.8333 36.5,58.1667 48.5,57.5C 48.5,55.8333 48.5,54.1667 48.5,52.5C 42.5,52.5 36.5,52.5 30.5,52.5C 30.5,44.1667 30.5,35.8333 30.5,27.5C 29.1667,27.5 27.8333,27.5 26.5,27.5C 26.5,23.8333 26.5,20.1667 26.5,16.5C 30.8839,16.8256 35.2172,16.4922 39.5,15.5C 37.9534,11.6035 38.9534,8.6035 42.5,6.5 Z M 42.5,8.5 C 47.8155,8.49736 49.8155,11.164 48.5,16.5C 41.2507,17.2827 39.2507,14.616 42.5,8.5 Z M 52.5,8.5 C 58.4877,8.66395 59.821,11.164 56.5,16C 54.5273,16.4955 52.5273,16.6621 50.5,16.5C 50.1072,13.4867 50.7739,10.8201 52.5,8.5 Z M 28.5,18.5 C 33.5,18.5 38.5,18.5 43.5,18.5C 43.5,20.8333 43.5,23.1667 43.5,25.5C 38.5,25.5 33.5,25.5 28.5,25.5C 28.5,23.1667 28.5,20.8333 28.5,18.5 Z M 55.5,18.5 C 60.5,18.5 65.5,18.5 70.5,18.5C 70.5,20.8333 70.5,23.1667 70.5,25.5C 65.5,25.5 60.5,25.5 55.5,25.5C 55.5,23.1667 55.5,20.8333 55.5,18.5 Z"/></g>
<g><path style="opacity:1" fill="#d5d6d5" d="M 45.5,18.5 C 48.1667,18.5 50.8333,18.5 53.5,18.5C 53.5,20.8333 53.5,23.1667 53.5,25.5C 50.8333,25.5 48.1667,25.5 45.5,25.5C 45.5,23.1667 45.5,20.8333 45.5,18.5 Z"/></g>
<g><path style="opacity:1" fill="#696969" d="M 50.5,34.5 C 50.5,33.5 50.5,32.5 50.5,31.5C 54.31,32.2458 54.31,33.2458 50.5,34.5 Z"/></g>
<g><path style="opacity:1" fill="#686868" d="M 46.5,34.5 C 45.8333,34.5 45.1667,34.5 44.5,34.5C 45.1667,31.8333 45.8333,31.8333 46.5,34.5 Z"/></g>
<g><path style="opacity:1" fill="#666766" d="M 48.5,32.5 C 49.8333,33.1667 49.8333,33.1667 48.5,32.5 Z"/></g>
<g><path style="opacity:1" fill="#666666" d="M 55.5,35.5 C 55.369,34.7611 55.5357,34.0944 56,33.5C 56.6917,34.4368 56.525,35.1034 55.5,35.5 Z"/></g>
<g><path style="opacity:1" fill="#646464" d="M 44.5,34.5 C 43.7659,35.7079 43.4326,37.0413 43.5,38.5C 42.5,38.5 41.5,38.5 40.5,38.5C 40.1667,35.5 41.5,34.1667 44.5,34.5 Z"/></g>
<g><path style="opacity:1" fill="#626362" d="M 46.5,34.5 C 47.1667,34.5 47.5,34.8333 47.5,35.5C 47.1667,35.1667 46.8333,34.8333 46.5,34.5 Z"/></g>
<g><path style="opacity:1" fill="#646464" d="M 50.5,34.5 C 50.9118,36.9726 49.9118,38.3059 47.5,38.5C 47.5,37.5 47.5,36.5 47.5,35.5C 48.609,35.4431 49.609,35.1098 50.5,34.5 Z"/></g>
<g><path style="opacity:1" fill="#616161" d="M 52.5,35.5 C 53.684,37.4099 55.184,37.7432 57,36.5C 57.6924,37.0253 58.1924,37.6919 58.5,38.5C 56.674,38.9202 54.674,38.9202 52.5,38.5C 52.5,37.5 52.5,36.5 52.5,35.5 Z"/></g>
<g><path style="opacity:1" fill="#616261" d="M 55.5,35.5 C 54.8333,36.1667 54.8333,36.1667 55.5,35.5 Z"/></g>
<g><path style="opacity:1" fill="#606160" d="M 45.5,36.5 C 46.8333,37.1667 46.8333,37.1667 45.5,36.5 Z"/></g>
<g><path style="opacity:1" fill="#5e5e5e" d="M 47.5,38.5 C 47.5569,39.609 47.8902,40.609 48.5,41.5C 43.8108,41.3686 43.4775,40.3686 47.5,38.5 Z"/></g>
<g><path style="opacity:1" fill="#545554" d="M 42.5,39.5 C 43.8333,40.1667 43.8333,40.1667 42.5,39.5 Z"/></g>
<g><path style="opacity:1" fill="#606160" d="M 49.5,39.5 C 50.8333,40.1667 50.8333,40.1667 49.5,39.5 Z"/></g>
<g><path style="opacity:1" fill="#656665" d="M 66.5,39.5 C 67.5862,39.62 68.2528,40.2867 68.5,41.5C 68.1667,42.1667 67.8333,42.8333 67.5,43.5C 66.5713,42.3112 66.238,40.9778 66.5,39.5 Z"/></g>
<g><path style="opacity:1" fill="#565656" d="M 48.5,41.5 C 50.1033,41.3118 51.4366,41.8118 52.5,43C 50.6476,43.7726 49.3143,43.2726 48.5,41.5 Z"/></g>
<g><path style="opacity:1" fill="#575757" d="M 54.5,44.5 C 53.2573,40.9082 54.2573,40.0748 57.5,42C 56.6266,43.045 55.6266,43.8783 54.5,44.5 Z"/></g>
<g><path style="opacity:1" fill="#545554" d="M 54.5,44.5 C 54.5,45.5 54.5,46.5 54.5,47.5C 50.7035,46.9114 50.7035,45.9114 54.5,44.5 Z"/></g>
<g><path style="opacity:1" fill="#656665" d="M 15.5,57.5 C 19.5546,57.1758 23.5546,57.5091 27.5,58.5C 24.2317,59.487 20.8984,59.8204 17.5,59.5C 17.5,61.1667 17.5,62.8333 17.5,64.5C 18.5,64.5 19.5,64.5 20.5,64.5C 20.5,65.5 20.5,66.5 20.5,67.5C 22.5,67.5 24.5,67.5 26.5,67.5C 26.5,75.8333 26.5,84.1667 26.5,92.5C 19.8333,92.5 13.1667,92.5 6.5,92.5C 6.17124,86.7945 6.50457,81.1278 7.5,75.5C 8.49415,80.456 8.82748,85.456 8.5,90.5C 13.8333,90.5 19.1667,90.5 24.5,90.5C 24.5,83.5 24.5,76.5 24.5,69.5C 23.1667,69.5 21.8333,69.5 20.5,69.5C 20.5,71.8333 20.5,74.1667 20.5,76.5C 17.8333,76.5 15.1667,76.5 12.5,76.5C 12.5,74.1667 12.5,71.8333 12.5,69.5C 10.5082,69.3285 8.84152,69.9951 7.5,71.5C 6.57131,70.3112 6.23798,68.9778 6.5,67.5C 8.5,67.5 10.5,67.5 12.5,67.5C 12.5,66.5 12.5,65.5 12.5,64.5C 13.5,64.5 14.5,64.5 15.5,64.5C 15.5,62.1667 15.5,59.8333 15.5,57.5 Z"/></g>
<g><path style="opacity:1" fill="#656665" d="M 31.5,57.5 C 32.9778,57.238 34.3112,57.5713 35.5,58.5C 34.8333,58.8333 34.1667,59.1667 33.5,59.5C 32.2867,59.2528 31.62,58.5862 31.5,57.5 Z"/></g>
<g><path style="opacity:1" fill="#d5d6d5" d="M 14.5,66.5 C 15.8333,66.5 17.1667,66.5 18.5,66.5C 18.5,69.1667 18.5,71.8333 18.5,74.5C 17.1667,74.5 15.8333,74.5 14.5,74.5C 14.5,71.8333 14.5,69.1667 14.5,66.5 Z"/></g>
<g><path style="opacity:1" fill="#d5d6d5" d="M 47.5,66.5 C 48.8333,66.5 50.1667,66.5 51.5,66.5C 51.5,69.1667 51.5,71.8333 51.5,74.5C 50.1667,74.5 48.8333,74.5 47.5,74.5C 47.5,71.8333 47.5,69.1667 47.5,66.5 Z"/></g>
<g><path style="opacity:1" fill="#d5d6d5" d="M 80.5,66.5 C 81.8333,66.5 83.1667,66.5 84.5,66.5C 84.5,69.1667 84.5,71.8333 84.5,74.5C 83.1667,74.5 81.8333,74.5 80.5,74.5C 80.5,71.8333 80.5,69.1667 80.5,66.5 Z"/></g>
<g><path style="opacity:1" fill="#808080" d="M 15.5,71.5 C 17.337,71.6395 17.6704,72.3061 16.5,73.5C 15.7025,73.0431 15.3691,72.3764 15.5,71.5 Z"/></g>
<g><path style="opacity:1" fill="#808080" d="M 48.5,71.5 C 50.337,71.6395 50.6704,72.3061 49.5,73.5C 48.7025,73.0431 48.3691,72.3764 48.5,71.5 Z"/></g>
<g><path style="opacity:1" fill="#808080" d="M 81.5,71.5 C 83.337,71.6395 83.6704,72.3061 82.5,73.5C 81.7025,73.0431 81.3691,72.3764 81.5,71.5 Z"/></g>
</svg>
